<?xml version="1.0" encoding="UTF-8" standalone="no"?>
<!-- Created with Inkscape (http://www.inkscape.org/) -->

<svg
   xmlns:dc="http://purl.org/dc/elements/1.1/"
   xmlns:cc="http://creativecommons.org/ns#"
   xmlns:rdf="http://www.w3.org/1999/02/22-rdf-syntax-ns#"
   xmlns:svg="http://www.w3.org/2000/svg"
   xmlns="http://www.w3.org/2000/svg"
   xmlns:xlink="http://www.w3.org/1999/xlink"
   xmlns:sodipodi="http://sodipodi.sourceforge.net/DTD/sodipodi-0.dtd"
   xmlns:inkscape="http://www.inkscape.org/namespaces/inkscape"
   width="146.45932"
   height="39.086613"
   id="svg4529"
   version="1.1"
   inkscape:version="0.48.5 r10040"
   sodipodi:docname="Clippings banner.svg">
  <defs
     id="defs3">
    <linearGradient
       inkscape:collect="always"
       xlink:href="#linearGradient5375"
       id="linearGradient4423"
       gradientUnits="userSpaceOnUse"
       gradientTransform="matrix(0.97696043,0,0,0.97041572,1.269727,-973.86533)"
       spreadMethod="pad"
       x1="4.2501278"
       y1="1003.4617"
       x2="42.708958"
       y2="1043.0842" />
    <linearGradient
       id="linearGradient5375">
      <stop
         style="stop-color:#eef3f6;stop-opacity:1;"
         offset="0"
         id="stop5377" />
      <stop
         style="stop-color:#abc3d2;stop-opacity:1;"
         offset="1"
         id="stop5379" />
    </linearGradient>
    <linearGradient
       inkscape:collect="always"
       xlink:href="#linearGradient3772"
       id="linearGradient4425"
       gradientUnits="userSpaceOnUse"
       gradientTransform="matrix(0.97696043,0,0,0.97041572,1.269727,-973.86533)"
       x1="4.2501278"
       y1="1003.4617"
       x2="37.459641"
       y2="1051.4814" />
    <linearGradient
       id="linearGradient3772">
      <stop
         id="stop3774"
         offset="0"
         style="stop-color:#6c8ad0;stop-opacity:1;" />
      <stop
         id="stop3776"
         offset="1"
         style="stop-color:#203567;stop-opacity:1;" />
    </linearGradient>
    <linearGradient
       inkscape:collect="always"
       xlink:href="#linearGradient3784"
       id="linearGradient4421"
       gradientUnits="userSpaceOnUse"
       gradientTransform="matrix(0.98727617,0,0,0.98066236,4.3699062,19.095274)"
       x1="43.246319"
       y1="1010.7271"
       x2="43.410355"
       y2="1051.9912" />
    <linearGradient
       id="linearGradient3784">
      <stop
         style="stop-color:#000000;stop-opacity:0;"
         offset="0"
         id="stop3786" />
      <stop
         style="stop-color:#545454;stop-opacity:0.3764706;"
         offset="1"
         id="stop3788" />
    </linearGradient>
    <linearGradient
       y2="1051.9912"
       x2="43.410355"
       y1="1010.7271"
       x1="43.246319"
       gradientTransform="matrix(0.98727617,0,0,0.98066236,2.510257,-983.02733)"
       gradientUnits="userSpaceOnUse"
       id="linearGradient4462"
       xlink:href="#linearGradient3784"
       inkscape:collect="always" />
    <linearGradient
       inkscape:collect="always"
       xlink:href="#linearGradient3784"
       id="linearGradient3086"
       gradientUnits="userSpaceOnUse"
       gradientTransform="matrix(1.5310474,0,0,1.5207908,1.2774054,-1526.6759)"
       x1="43.246319"
       y1="1010.7271"
       x2="43.410355"
       y2="1051.9912" />
    <linearGradient
       inkscape:collect="always"
       xlink:href="#linearGradient5375"
       id="linearGradient3088"
       gradientUnits="userSpaceOnUse"
       gradientTransform="matrix(1.5150499,0,0,1.5049005,-0.64638269,-1512.4677)"
       spreadMethod="pad"
       x1="4.2501278"
       y1="1003.4617"
       x2="42.708958"
       y2="1043.0842" />
    <linearGradient
       inkscape:collect="always"
       xlink:href="#linearGradient3772"
       id="linearGradient3090"
       gradientUnits="userSpaceOnUse"
       gradientTransform="matrix(1.5150499,0,0,1.5049005,-0.64638269,-1512.4677)"
       x1="4.2501278"
       y1="1003.4617"
       x2="37.459641"
       y2="1051.4814" />
  </defs>
  <sodipodi:namedview
     id="base"
     pagecolor="#ffffff"
     bordercolor="#666666"
     borderopacity="1.0"
     inkscape:pageopacity="0.0"
     inkscape:pageshadow="2"
     inkscape:zoom="2.8284271"
     inkscape:cx="150.60749"
     inkscape:cy="-25.788883"
     inkscape:document-units="mm"
     inkscape:current-layer="layer1"
     showgrid="false"
     units="mm"
     fit-margin-top="1"
     fit-margin-left="1"
     fit-margin-bottom="1"
     fit-margin-right="1"
     inkscape:window-width="1280"
     inkscape:window-height="674"
     inkscape:window-x="0"
     inkscape:window-y="1"
     inkscape:window-maximized="1" />
  <metadata
     id="metadata4533">
    <rdf:RDF>
      <cc:Work
         rdf:about="">
        <dc:format>image/svg+xml</dc:format>
        <dc:type
           rdf:resource="http://purl.org/dc/dcmitype/StillImage" />
        <dc:title />
      </cc:Work>
    </rdf:RDF>
  </metadata>
  <g
     inkscape:label="Layer 1"
     inkscape:groupmode="layer"
     id="layer1"
     transform="translate(-3.205327,-1.1077373)">
    <g
       id="g3075"
       transform="matrix(0.64483711,0,0,0.64483711,3.6865386,2.0548596)">
      <path
         id="path3792"
         style="fill:none;stroke:url(#linearGradient3086);stroke-width:2.46776891;stroke-linecap:butt;stroke-linejoin:miter;stroke-miterlimit:4;stroke-opacity:1;stroke-dasharray:none;display:inline"
         d="m 32.594177,7.1939823 0,9.8062997 11.84731,0 M 7.2652867,7.0318823 l 0,41.3495997 c 2.39152,-6.6072 11.8582003,-9.3023 17.9626503,-5.8838 4.54393,2.4414 3.76007,4.7802 10.05069,8.4623 4.08496,2.0344 7.24525,1.3445 9.28006,1.3445 l -0.1172,-34.983 -12.25991,-10.2895997 z"
         inkscape:connector-curvature="0"
         sodipodi:nodetypes="ccccccccccc"
         inkscape:export-xdpi="60"
         inkscape:export-ydpi="60" />
      <path
         inkscape:export-ydpi="60"
         inkscape:export-xdpi="60"
         sodipodi:nodetypes="ccccccccccc"
         inkscape:connector-curvature="0"
         d="m 31.392957,5.426382 0,9.8364 11.88368,0 m -37.2903303,-9.999 0,41.4766 c 2.39886,-6.6276 11.8946003,-9.3309 18.0178003,-5.902 4.55787,2.4489 3.7716,4.7949 10.08154,8.4883 4.0975,2.0407 7.26749,1.3487 9.30855,1.3487 l -0.11756,-35.0904 -12.29755,-10.3212 z"
         style="fill:url(#linearGradient3088);fill-opacity:1;stroke:url(#linearGradient3090);stroke-width:2.47534513;stroke-linecap:butt;stroke-linejoin:miter;stroke-miterlimit:4;stroke-opacity:1;stroke-dasharray:none;display:inline"
         id="path3849" />
      <path
         inkscape:connector-curvature="0"
         id="path3862"
         d="m 36.755657,20.407882 -24.5543,0"
         style="fill:none;stroke:#6080cc;stroke-width:1.74924064;stroke-linecap:butt;stroke-linejoin:miter;stroke-miterlimit:4;stroke-opacity:1;stroke-dasharray:none;stroke-dashoffset:0;display:inline" />
      <path
         inkscape:connector-curvature="0"
         id="path3864"
         d="m 25.740907,16.032882 -13.53331,0"
         style="fill:none;stroke:#6080cc;stroke-width:1.70973563;stroke-linecap:butt;stroke-linejoin:miter;stroke-miterlimit:4;stroke-opacity:1;stroke-dasharray:none;stroke-dashoffset:0;display:inline" />
      <path
         inkscape:connector-curvature="0"
         id="path3866"
         d="m 12.195267,24.782882 24.59551,0"
         style="fill:none;stroke:#6080cc;stroke-width:1.75070834;stroke-linecap:butt;stroke-linejoin:miter;stroke-miterlimit:4;stroke-opacity:1;stroke-dasharray:none;stroke-dashoffset:0;display:inline" />
      <path
         inkscape:connector-curvature="0"
         id="path3868"
         d="m 12.113047,29.282882 24.55414,0"
         style="fill:none;stroke:#6080cc;stroke-width:1.74923539;stroke-linecap:butt;stroke-linejoin:miter;stroke-miterlimit:4;stroke-opacity:1;stroke-dasharray:none;stroke-dashoffset:0;display:inline" />
      <path
         inkscape:connector-curvature="0"
         id="path3870"
         d="m 12.152517,33.782882 24.63681,0"
         style="fill:none;stroke:#6080cc;stroke-width:1.75217724;stroke-linecap:butt;stroke-linejoin:miter;stroke-miterlimit:4;stroke-opacity:1;stroke-dasharray:none;stroke-dashoffset:0;display:inline" />
      <path
         inkscape:connector-curvature="0"
         id="path3916"
         d="m 12.215307,11.657882 13.55543,0"
         style="fill:none;stroke:#6080cc;stroke-width:1.71099997;stroke-linecap:butt;stroke-linejoin:miter;stroke-miterlimit:4;stroke-opacity:1;stroke-dasharray:none;stroke-dashoffset:0;display:inline" />
      <path
         inkscape:connector-curvature="0"
         id="path3918"
         d="m 36.866867,38.282882 -8.03507,0"
         style="fill:none;stroke:#6080cc;stroke-width:1.79999995;stroke-linecap:butt;stroke-linejoin:miter;stroke-miterlimit:4;stroke-opacity:1;stroke-dasharray:none;stroke-dashoffset:0;display:inline" />
    </g>
    <g
       transform="translate(-16.765376,2.2948458)"
       style="font-size:28px;font-style:normal;font-variant:normal;font-weight:bold;font-stretch:normal;text-align:start;line-height:125%;letter-spacing:-1px;word-spacing:0px;writing-mode:lr-tb;text-anchor:start;fill:#383838;fill-opacity:1;stroke:none;display:inline;font-family:Rokkitt;-inkscape-font-specification:Rokkitt Bold"
       id="flowRoot3905">
      <path
         d="m 66.542969,25.401457 c -1.430998,-0.0091 -2.684252,-0.241536 -3.759766,-0.697265 -1.066411,-0.455729 -1.959639,-1.070962 -2.679687,-1.845703 -0.71094,-0.774737 -1.244143,-1.67708 -1.59961,-2.707032 -0.35547,-1.029942 -0.533204,-2.128248 -0.533203,-3.294922 -10e-7,-1.266917 0.195962,-2.424468 0.587891,-3.472656 0.391925,-1.048164 0.957028,-1.950507 1.695312,-2.707031 0.738278,-0.7564952 1.636063,-1.3443853 2.69336,-1.7636719 1.066399,-0.4192542 2.269523,-0.6288894 3.609375,-0.6289063 1.07551,1.69e-5 2.037097,0.1777511 2.884765,0.5332032 0.856758,0.3554847 1.604153,0.8339998 2.242188,1.435547 l 0,-1.7226564 2.242187,0 0,5.2363284 -2.11914,0 C 71.533189,13.18337 71.214178,12.682069 70.849609,12.262785 70.494127,11.843528 70.1022,11.501731 69.673828,11.237395 69.24543,10.963972 68.785144,10.768008 68.292969,10.649504 c -0.483084,-0.127589 -0.988943,-0.191391 -1.517578,-0.191406 -0.865895,1.5e-5 -1.640634,0.15952 -2.324219,0.478516 -0.683601,0.319024 -1.266933,0.761081 -1.75,1.326171 -0.483078,0.565117 -0.852219,1.235038 -1.107422,2.009766 -0.255213,0.77475 -0.382817,1.622405 -0.382813,2.542969 -4e-6,0.902351 0.118486,1.745449 0.355469,2.529297 0.236975,0.774744 0.587886,1.449223 1.052735,2.023437 0.473952,0.574222 1.057285,1.025394 1.75,1.353516 0.6927,0.328127 1.490225,0.492189 2.392578,0.492187 0.601552,2e-6 1.184885,-0.07747 1.75,-0.232422 0.565092,-0.154945 1.080065,-0.396481 1.544922,-0.724609 0.473944,-0.337236 0.8841,-0.761064 1.230468,-1.271484 0.34634,-0.519527 0.610663,-1.134761 0.792969,-1.845703 l 2.337891,1.107421 c -0.309913,0.993494 -0.733741,1.818363 -1.271485,2.47461 -0.537776,0.656252 -1.153009,1.184897 -1.845703,1.585937 -0.683607,0.391928 -1.431002,0.669922 -2.242187,0.833985 -0.811209,0.164062 -1.64975,0.250651 -2.515625,0.259765"
         style=""
         id="path3128" />
      <path
         d="m 74.8125,25.141692 0,-1.927735 2.064453,0 0,-12.769531 -2.037109,0 0,-1.9140624 4.716797,0 0,14.6835934 1.845703,0 0,1.927735 -6.589844,0"
         style=""
         id="path3130" />
      <path
         d="m 85.037109,8.3663011 c 0.218746,1.68e-5 0.423824,0.041032 0.615235,0.1230469 0.191401,0.072933 0.355463,0.1777508 0.492187,0.3144531 0.145828,0.1276204 0.25976,0.2825681 0.341797,0.4648437 0.08203,0.1823074 0.123041,0.3737135 0.123047,0.5742188 -6e-6,0.2096504 -0.04102,0.4056134 -0.123047,0.5878904 -0.08204,0.173192 -0.195969,0.32814 -0.341797,0.464844 -0.136724,0.127618 -0.300786,0.232436 -0.492187,0.314453 -0.191411,0.07293 -0.396489,0.109389 -0.615235,0.109375 -0.218754,1.4e-5 -0.423831,-0.03644 -0.615234,-0.109375 -0.182295,-0.08202 -0.3418,-0.186835 -0.478516,-0.314453 -0.136721,-0.136704 -0.246096,-0.291652 -0.328125,-0.464844 -0.08203,-0.182277 -0.123049,-0.37824 -0.123047,-0.5878904 -2e-6,-0.2005053 0.04101,-0.3919114 0.123047,-0.5742188 0.08203,-0.1822756 0.191404,-0.3372233 0.328125,-0.4648437 0.136716,-0.1367023 0.296221,-0.2415199 0.478516,-0.3144531 0.191403,-0.082015 0.39648,-0.1230301 0.615234,-0.1230469 m -3.199218,7.0820309 0,-1.914062 4.552734,0 0,9.679687 1.873047,0 0,1.927735 -6.425781,0 0,-1.927735 1.873046,0 0,-7.765625 -1.873046,0"
         style=""
         id="path3132" />
      <path
         d="m 88.125,27.602629 2.009766,0 0,-12.154297 -2.009766,0 0,-1.914062 4.648437,0 0.04102,1.408203 c 0.574213,-0.555979 1.180332,-0.966135 1.818359,-1.230469 0.638014,-0.273426 1.344393,-0.410144 2.119141,-0.410156 0.838532,1.2e-5 1.599599,0.15496 2.283203,0.464844 0.683582,0.309907 1.262354,0.733734 1.736324,1.271484 0.48306,0.53777 0.8522,1.171233 1.10743,1.900391 0.2643,0.729174 0.39647,1.513027 0.39648,2.351562 -1e-5,0.920578 -0.14585,1.759119 -0.4375,2.515625 -0.28257,0.747399 -0.67449,1.389976 -1.17578,1.927735 -0.4922,0.528646 -1.075533,0.938802 -1.750001,1.230468 -0.674489,0.291667 -1.399098,0.4375 -2.173828,0.4375 -0.738289,0 -1.453783,-0.127604 -2.146484,-0.382812 -0.692715,-0.255208 -1.285162,-0.63802 -1.777344,-1.148438 l 0,3.732422 2.296875,0 0,2.050781 -6.986328,0 0,-2.050781 m 7.916016,-4.333984 c 0.546866,2e-6 1.034496,-0.0957 1.46289,-0.28711 0.428375,-0.191403 0.788401,-0.455726 1.080078,-0.792968 0.30077,-0.346351 0.528635,-0.756507 0.683594,-1.230469 0.154936,-0.473954 0.23241,-0.988927 0.232422,-1.544922 -1.2e-5,-0.574212 -0.08204,-1.102858 -0.246094,-1.585937 -0.154959,-0.49218 -0.382823,-0.916008 -0.683594,-1.271485 -0.291677,-0.35546 -0.651702,-0.633454 -1.080078,-0.833984 -0.428394,-0.200511 -0.916024,-0.300772 -1.46289,-0.300781 -0.428394,9e-6 -0.824878,0.07293 -1.189453,0.21875 -0.36459,0.136728 -0.683601,0.30079 -0.957032,0.492187 -0.273443,0.182301 -0.501307,0.364592 -0.683593,0.546875 -0.182297,0.1823 -0.309901,0.314461 -0.382813,0.396484 l 0,4.716797 c 0.08203,0.08203 0.218745,0.205082 0.410156,0.369141 0.191401,0.164065 0.423823,0.328128 0.697266,0.492187 0.273431,0.164065 0.587884,0.309898 0.943359,0.4375 0.355462,0.118492 0.747388,0.177737 1.175782,0.177735"
         style=""
         id="path3134" />
      <path
         d="m 102.49219,27.602629 2.00976,0 0,-12.154297 -2.00976,0 0,-1.914062 4.64844,0 0.041,1.408203 c 0.57421,-0.555979 1.18033,-0.966135 1.81836,-1.230469 0.63801,-0.273426 1.34439,-0.410144 2.11914,-0.410156 0.83853,1.2e-5 1.5996,0.15496 2.2832,0.464844 0.68359,0.309907 1.26236,0.733734 1.73633,1.271484 0.48306,0.53777 0.8522,1.171233 1.10742,1.900391 0.26431,0.729174 0.39647,1.513027 0.39649,2.351562 -2e-5,0.920578 -0.14585,1.759119 -0.4375,2.515625 -0.28257,0.747399 -0.67449,1.389976 -1.17578,1.927735 -0.4922,0.528646 -1.07554,0.938802 -1.75,1.230468 -0.67449,0.291667 -1.3991,0.4375 -2.17383,0.4375 -0.73829,0 -1.45378,-0.127604 -2.14649,-0.382812 -0.69271,-0.255208 -1.28516,-0.63802 -1.77734,-1.148438 l 0,3.732422 2.29688,0 0,2.050781 -6.98633,0 0,-2.050781 m 7.91601,-4.333984 c 0.54687,2e-6 1.0345,-0.0957 1.46289,-0.28711 0.42838,-0.191403 0.7884,-0.455726 1.08008,-0.792968 0.30077,-0.346351 0.52864,-0.756507 0.6836,-1.230469 0.15493,-0.473954 0.23241,-0.988927 0.23242,-1.544922 -10e-6,-0.574212 -0.082,-1.102858 -0.2461,-1.585937 -0.15496,-0.49218 -0.38282,-0.916008 -0.68359,-1.271485 -0.29168,-0.35546 -0.6517,-0.633454 -1.08008,-0.833984 -0.42839,-0.200511 -0.91602,-0.300772 -1.46289,-0.300781 -0.42839,9e-6 -0.82488,0.07293 -1.18945,0.21875 -0.36459,0.136728 -0.6836,0.30079 -0.95703,0.492187 -0.27345,0.182301 -0.50131,0.364592 -0.6836,0.546875 -0.18229,0.1823 -0.3099,0.314461 -0.38281,0.396484 l 0,4.716797 c 0.082,0.08203 0.21875,0.205082 0.41016,0.369141 0.1914,0.164065 0.42382,0.328128 0.69726,0.492187 0.27343,0.164065 0.58789,0.309898 0.94336,0.4375 0.35546,0.118492 0.74739,0.177737 1.17578,0.177735"
         style=""
         id="path3136" />
      <path
         d="m 120.5918,8.3663011 c 0.21874,1.68e-5 0.42382,0.041032 0.61523,0.1230469 0.1914,0.072933 0.35546,0.1777508 0.49219,0.3144531 0.14583,0.1276204 0.25976,0.2825681 0.3418,0.4648437 0.082,0.1823074 0.12304,0.3737135 0.12304,0.5742188 0,0.2096504 -0.041,0.4056134 -0.12304,0.5878904 -0.082,0.173192 -0.19597,0.32814 -0.3418,0.464844 -0.13673,0.127618 -0.30079,0.232436 -0.49219,0.314453 -0.19141,0.07293 -0.39649,0.109389 -0.61523,0.109375 -0.21876,1.4e-5 -0.42383,-0.03644 -0.61524,-0.109375 -0.18229,-0.08202 -0.3418,-0.186835 -0.47851,-0.314453 -0.13672,-0.136704 -0.2461,-0.291652 -0.32813,-0.464844 -0.082,-0.182277 -0.12305,-0.37824 -0.12304,-0.5878904 -1e-5,-0.2005053 0.041,-0.3919114 0.12304,-0.5742188 0.082,-0.1822756 0.19141,-0.3372233 0.32813,-0.4648437 0.13671,-0.1367023 0.29622,-0.2415199 0.47851,-0.3144531 0.19141,-0.082015 0.39648,-0.1230301 0.61524,-0.1230469 m -3.19922,7.0820309 0,-1.914062 4.55273,0 0,9.679687 1.87305,0 0,1.927735 -6.42578,0 0,-1.927735 1.87305,0 0,-7.765625 -1.87305,0"
         style=""
         id="path3138" />
      <path
         d="m 124.13086,15.448332 0,-1.914062 4.70312,0 c 0,0.07293 0,0.177746 0,0.314453 0,0.13673 0,0.282563 0,0.4375 0.009,0.145844 0.0137,0.282563 0.0137,0.410156 0.009,0.127615 0.0137,0.214203 0.0137,0.259766 0.68359,-0.546864 1.33528,-0.95702 1.95508,-1.230469 0.62889,-0.28254 1.27603,-0.423816 1.9414,-0.423828 0.49218,1.2e-5 0.94791,0.08204 1.36719,0.246094 0.42837,0.164074 0.79296,0.40561 1.09375,0.724609 0.30988,0.319021 0.55142,0.720062 0.72461,1.203125 0.18228,0.473968 0.27342,1.025399 0.27344,1.654297 -2e-5,0.08204 -2e-5,0.23243 0,0.451172 -2e-5,0.209643 -0.005,0.464851 -0.0137,0.765625 -1e-5,0.300788 -1e-5,0.63347 0,0.998047 -1e-5,0.355474 -1e-5,0.710942 0,1.066406 l 0,2.802734 1.95508,0 0,1.927735 -5.90625,0 0,-1.927735 1.28516,0 0,-5.386718 c -1e-5,-0.783846 -0.11394,-1.380851 -0.3418,-1.791016 -0.21876,-0.410147 -0.61068,-0.615225 -1.17578,-0.615234 -0.58334,9e-6 -1.14389,0.154957 -1.68164,0.464843 -0.52865,0.300791 -1.02084,0.683603 -1.47656,1.148438 l 0,6.179687 1.65429,0 0,1.927735 -6.33007,0 0,-1.927735 1.96875,0 0,-7.765625 -2.02344,0"
         style=""
         id="path3140" />
      <path
         d="m 144.41797,29.899504 c -1.02996,-5e-6 -1.93686,-0.109379 -2.7207,-0.328125 -0.77475,-0.209639 -1.45378,-0.555993 -2.03711,-1.039062 l 1.20312,-1.59961 c 0.45573,0.346352 0.9388,0.615232 1.44922,0.806641 0.51953,0.191403 1.14387,0.287106 1.87305,0.287109 0.47395,-3e-6 0.92056,-0.04557 1.33984,-0.136718 0.42838,-0.08203 0.80208,-0.218753 1.12109,-0.410157 0.31901,-0.182293 0.56966,-0.414715 0.75196,-0.697265 0.19139,-0.282554 0.2871,-0.619793 0.28711,-1.011719 l 0,-1.845703 c -0.22788,0.218751 -0.4922,0.414714 -0.79297,0.58789 -0.30079,0.164063 -0.62436,0.305339 -0.97071,0.423829 -0.33724,0.118489 -0.69271,0.209635 -1.0664,0.273437 -0.37371,0.0638 -0.74285,0.0957 -1.10742,0.0957 -0.78386,0 -1.51303,-0.141276 -2.1875,-0.423828 -0.67449,-0.282551 -1.26238,-0.683593 -1.76368,-1.203125 -0.49218,-0.528644 -0.87955,-1.157549 -1.1621,-1.886719 -0.28256,-0.738277 -0.42383,-1.558589 -0.42383,-2.460937 0,-0.838535 0.13216,-1.622389 0.39648,-2.351563 0.26432,-0.738272 0.63802,-1.376292 1.1211,-1.914062 0.48307,-0.546865 1.0664,-0.97525 1.75,-1.285156 0.6927,-0.318999 1.46288,-0.478504 2.31054,-0.478516 0.76562,1.2e-5 1.45833,0.127616 2.07813,0.382812 0.62889,0.25522 1.23046,0.656261 1.80468,1.203125 l 0,-1.353515 4.75782,0 0,1.914062 -2.05078,0 0,10.199219 c -2e-5,2.834632 -1.98699,4.251948 -5.96094,4.251953 m 0.041,-6.726562 c 0.41927,2e-6 0.80664,-0.0638 1.16211,-0.191407 0.36458,-0.127601 0.68359,-0.273435 0.95703,-0.4375 0.27343,-0.173174 0.5013,-0.341793 0.6836,-0.505859 0.19139,-0.164059 0.32811,-0.282549 0.41015,-0.355469 l 0,-4.607422 c -0.0729,-0.08202 -0.20053,-0.214184 -0.38281,-0.396484 -0.1823,-0.182283 -0.41016,-0.364574 -0.68359,-0.546875 -0.27345,-0.191397 -0.59246,-0.355459 -0.95703,-0.492187 -0.35548,-0.145824 -0.74285,-0.218741 -1.16211,-0.21875 -0.54688,9e-6 -1.03907,0.10027 -1.47656,0.300781 -0.42839,0.20053 -0.79298,0.478524 -1.09375,0.833984 -0.30079,0.355477 -0.52865,0.779305 -0.6836,1.271485 C 141.07747,18.310318 141,18.838964 141,19.413176 c 0,0.54688 0.0775,1.048182 0.23242,1.503906 0.15495,0.455733 0.37825,0.852217 0.66992,1.189453 0.30078,0.337243 0.66536,0.601565 1.09375,0.792969 0.42838,0.182294 0.91601,0.27344 1.46289,0.273438"
         style=""
         id="path3142" />
      <path
         d="m 153.00195,21.272551 2.13282,0 0,0.916016 c 0.2552,0.428388 0.6289,0.756512 1.12109,0.984375 0.5013,0.227866 1.08007,0.341798 1.73633,0.341797 0.77473,1e-6 1.37173,-0.118488 1.79101,-0.355469 0.41927,-0.246092 0.6289,-0.606117 0.62891,-1.080078 -1e-5,-0.300778 -0.10938,-0.542314 -0.32813,-0.72461 -0.20964,-0.191402 -0.49219,-0.350907 -0.84765,-0.478515 -0.35548,-0.1276 -0.76108,-0.236975 -1.2168,-0.328125 -0.44662,-0.100256 -0.90691,-0.209631 -1.38086,-0.328125 -0.47396,-0.118485 -0.9388,-0.259761 -1.39453,-0.423828 -0.44662,-0.164057 -0.84766,-0.37825 -1.20312,-0.642579 -0.35547,-0.273431 -0.64258,-0.61067 -0.86133,-1.011718 -0.20964,-0.401035 -0.31446,-0.897779 -0.31446,-1.490235 0,-0.464834 0.10026,-0.902334 0.30079,-1.3125 0.20963,-0.410146 0.5013,-0.765614 0.875,-1.066406 0.37369,-0.30077 0.82486,-0.537749 1.35351,-0.710937 0.52864,-0.173166 1.11653,-0.259754 1.76367,-0.259766 0.53776,1.2e-5 1.05729,0.08204 1.5586,0.246094 0.50129,0.154959 0.93423,0.391938 1.29882,0.710937 l 0,-0.724609 2.21485,0 0,3.609375 -2.21485,0 0,-0.94336 c -0.28256,-0.328115 -0.62891,-0.578766 -1.03906,-0.751953 -0.41016,-0.182281 -0.91602,-0.273427 -1.51758,-0.273437 -0.67448,1e-5 -1.20768,0.118499 -1.59961,0.355469 -0.38281,0.227874 -0.57422,0.551441 -0.57421,0.970703 -1e-5,0.28256 0.10937,0.514982 0.32812,0.697265 0.21875,0.173185 0.50586,0.319018 0.86133,0.4375 0.35546,0.118497 0.76106,0.223315 1.2168,0.314453 0.45572,0.09115 0.92056,0.195971 1.39453,0.314454 0.47395,0.118496 0.93879,0.264329 1.39453,0.4375 0.45572,0.173183 0.86132,0.401047 1.2168,0.683593 0.35545,0.282558 0.64256,0.638026 0.86132,1.066407 0.21874,0.419275 0.32812,0.934248 0.32813,1.544921 -1e-5,0.501305 -0.10483,0.961591 -0.31445,1.38086 -0.20965,0.419272 -0.51499,0.779298 -0.91602,1.080078 -0.39194,0.300782 -0.87045,0.533203 -1.43555,0.697266 -0.56511,0.164062 -1.19857,0.246093 -1.90039,0.246093 -0.72006,0 -1.33073,-0.07747 -1.83203,-0.232422 -0.49219,-0.154947 -0.94336,-0.396484 -1.35351,-0.724609 l 0,0.697266 -2.13282,0 0,-3.869141"
         style=""
         id="path3144" />
    </g>
  </g>
</svg>
