<?xml version="1.0" encoding="UTF-8"?>
<svg width="16" height="16" version="1.1" xmlns="http://www.w3.org/2000/svg">
 <g transform="translate(-10 -182.36)">
  <path d="m18.035 194.35 7.459 0.0221 0.0064-8.4365s-0.01319-0.41175-0.39766-0.73948c-0.404-0.3444-0.71426-0.34827-0.71426-0.34827s-6.4729 8e-3 -6.9974-5e-4c-0.40042-6e-3 -1.4318-1.9124-1.9039-1.9702-0.22951-0.0281-3.8606-3e-3 -3.8606-3e-3 -0.13038 0.0382-0.45747 0.62579-0.55404 0.80538-0.09419 0.17518-0.56176 1.028-0.57198 1.1295l-0.0129 9.5634z" fill="#f0f0ff" stroke="#5858ff"/>
  <path d="m13.5 186.86 7.1894-1e-5 1.8327 2.1694-0.0221 8.825s-1.6812-0.13232-2.5-0.5c-1.0199-0.45801-2-1.5-3.5-1.5-1 0-3 1-3 1z" fill="#fff" stroke="#3434fd" stroke-width="1px"/>
  <g fill="none" stroke-width="1px">
   <path d="m15.5 191.86h5" stroke="#6784fd"/>
   <path d="m20.5 186.84v2h2" stroke="#3434fd"/>
   <path d="m15.5 193.86h5" stroke="#6784fd"/>
   <path d="m15.5 189.86h3.5" stroke="#6784fd"/>
  </g>
 </g>
</svg>
