<?xml version="1.0" encoding="UTF-8"?>
<svg width="16" height="16" version="1.1" xmlns="http://www.w3.org/2000/svg" xmlns:xlink="http://www.w3.org/1999/xlink">
 <defs>
  <linearGradient id="linearGradient931" x1="13.079" x2="19.999" y1="187.48" y2="195.4" gradientTransform="matrix(.99994 0 0 .925 .0099784 12.779)" gradientUnits="userSpaceOnUse">
   <stop stop-color="#c6c2ff" offset="0"/>
   <stop stop-color="#b6b2e6" offset="1"/>
  </linearGradient>
 </defs>
 <g transform="translate(-10 -182.36)">
  <g>
   <path d="m17.995 192.99h7.4857l0.02851-7.1869s-0.0132-0.41227-0.39791-0.74041c-0.40425-0.34483-0.71471-0.34871-0.71471-0.34871s-6.4548 0.0301-6.8912-0.0226c-0.39784-0.048-1.5432-1.7602-2.0155-1.818-0.22965-0.0281-3.465-3e-3 -3.465-3e-3 0.0022-6e-3 -0.52664 0.48369-0.75338 0.69577-0.23438 0.21923-0.7611 0.74167-0.77133 0.75482l0.0092 8.6693z" fill="#968fff" stroke="#6e59b0"/>
   <path d="m10.962 186.02c0.42753-0.36303 0.84369-0.39161 0.84369-0.39161l12.434 7e-3s0.41334 0.0267 0.85664 0.38674c0.42013 0.34117 0.41159 0.8069 0.41159 0.8069l-0.0046 8.0302s0.03839-0.0478-0.02065-0.02c-0.11954 0.0562-0.02048 0.0403-0.02048 0.0403h-14.942l0.01697-6e-3 -0.0279-5e-3v-8.0113s0.05733-0.50217 0.4531-0.83824z" fill="url(#linearGradient931)" stroke="#7a67b7" stroke-linecap="square" stroke-linejoin="round" stroke-width="1.0016"/>
   <path transform="translate(10 182.36)" d="m4.5 5.5h7.0347l1.9653 2.0589v7.9411s-1.6812-0.13232-2.5-0.5c-1.0199-0.45801-2-1.5-3.5-1.5-1 0-3 1-3 1z" fill="#f0f0ff" stroke="#766aab" stroke-width="1px"/>
  </g>
  <g fill="none">
   <path d="m16.5 191.86h5" stroke="#9a91c6" stroke-width="1px"/>
   <path d="m16.5 193.86h5" stroke="#9a91c6" stroke-width="1px"/>
   <path transform="translate(10 182.36)" d="m11.5 5.5v2h2" stroke="#766aab" stroke-width="1px"/>
   <path d="m16.5 189.86h3.5" stroke="#9a91c6" stroke-width="1px"/>
  </g>
 </g>
</svg>
