<?xml version="1.0" encoding="UTF-8"?>
<svg width="32" height="32" version="1.1" xmlns="http://www.w3.org/2000/svg">
 <g transform="translate(-4.3438 -1036.4)">
  <path d="m17.831 1037.4v5.509l5.638 0.022m-18.611-6.0097-0.01389 21.538c2.8974-2.3647 3.6533-2.8726 6.5759-2.8726 2.6973-0.032 4.1021 1.8384 7.3065 3.591 2.0113 0.9392 3.9013 0.696 5.1146 0.7402l-4e-3 -17.312-5.7134-5.6842z" fill="#f0f0ff" stroke="#5858ff" stroke-linecap="round" stroke-linejoin="round"/>
  <g fill="none" stroke="#6784fd">
   <path d="m8.3428 1046.8h12" stroke-width="1px"/>
   <g stroke-width="1px">
    <path d="m8.3428 1048.9h12"/>
    <path d="m13.343 1052.9h5.0173"/>
    <path d="m8.3428 1050.9h12"/>
   </g>
   <path d="m8.3428 1044.8h12" stroke-width="1px"/>
   <path d="m8.3429 1040.9 6-1e-4" stroke-width="1px"/>
   <path d="m8.3429 1042.9 6-1e-4" stroke-width="1px"/>
  </g>
  <path d="m29.832 1045.4v5.509l5.638 0.022m-18.611-6.0097-0.01389 21.538c2.8974-2.3647 3.6533-2.8726 6.5759-2.8726 2.6973-0.032 4.1021 1.8384 7.3065 3.591 2.0113 0.9392 3.9013 0.696 5.1146 0.7402l-4e-3 -17.312-5.7134-5.6842z" fill="#f0f0ff" stroke="#3434fd" stroke-linecap="round" stroke-linejoin="round"/>
  <g fill="none">
   <path d="m18.344 1054.8h16" stroke="#5858ff" stroke-width="1px"/>
   <path d="m23.344 1050.9 5-1e-4" stroke="#6784fd" stroke-width="1px"/>
   <g stroke="#5858ff" stroke-width="1px">
    <path d="m18.669 1052.8 3.1695-4.3891v4.0797"/>
    <path d="m21.038 1052.8h1.6131"/>
    <path d="m17.988 1052.8h1.6794"/>
   </g>
   <path d="m19.344 1056.9h8" stroke="#6784fd" stroke-width="1px"/>
   <path d="m19.352 1051.9 2.2344-0.031" stroke="#5858ff" stroke-width="1px"/>
   <path d="m23.344 1052.9 8-1e-4" stroke="#6784fd" stroke-width="1px"/>
  </g>
  <rect x="28.844" y="1056.9" width="4.9688" height="4.9688" fill="#6784fd" stroke="#5858ff" stroke-linecap="square" stroke-width="1.0016"/>
  <g fill="none" stroke="#6784fd" stroke-width="1px">
   <path d="m19.344 1060.9h8"/>
   <path d="m23.344 1048.9 5-1e-4"/>
   <path d="m19.344 1058.9h8"/>
  </g>
 </g>
</svg>
