<?xml version="1.0" encoding="UTF-8"?>
<svg width="16" height="16" version="1.1" xmlns="http://www.w3.org/2000/svg">
 <g transform="translate(-4.3438 -1036.4)">
  <path d="m10.867 1037.2v2.7284l2.7903-0.031m-8.8137-3.0096v10.253c1.4434-1.1522 1.8555-1.2459 3.1773-1.2459 1.3844 0 1.8806 0.7186 3.3984 1.6121 0.9527 0.4789 1.9317 0.3662 2.4226 0.3662l0.0041-8.2886-2.6979-2.6971z" fill="#f0f0ff" stroke="#5858fd"/>
  <path d="m6.3438 1041.9 6 0.031" fill="none" stroke="#6784fd" stroke-width="1px"/>
  <path d="m6.3438 1043.9 6 0.031" fill="none" stroke="#6784fd" stroke-width="1px"/>
  <path d="m16.867 1041.2v2.7284l2.7903-0.031m-8.8137-3.0096v10.253c1.4434-1.1522 1.8555-1.2459 3.1773-1.2459 1.3844 0 1.8806 0.7186 3.3984 1.6121 0.9527 0.4789 1.9317 0.3662 2.4226 0.3662l0.0041-8.2886-2.6979-2.6971z" fill="#f0f0ff" stroke="#3434fd"/>
  <g fill="none" stroke-width="1px">
   <path d="m14.65 1044.7-1.5959 1.6869 1.6046 1.6222" stroke="#3434fd"/>
   <path d="m16.066 1044.7 1.5959 1.6869-1.6046 1.6222" stroke="#3434fd"/>
   <path d="m6.3454 1039.9 3.0065-0.01" stroke="#6784fd"/>
  </g>
 </g>
</svg>
