<?xml version="1.0" encoding="UTF-8"?>
<svg width="32" height="32" version="1.1" xmlns="http://www.w3.org/2000/svg">
 <g transform="translate(-4.3438 -1036.4)">
  <path d="m17.832 1037.4v5.509l5.638 0.022m-18.611-6.0097-0.01389 21.538c2.8974-2.3647 3.6533-2.8726 6.5759-2.8726 2.6973-0.032 4.1021 1.8384 7.3065 3.591 2.0113 0.9392 3.9013 0.696 5.1146 0.7402l-4e-3 -17.312-5.7134-5.6842z" fill="#f0f0ff" stroke="#9084c0" stroke-linecap="round" stroke-linejoin="round"/>
  <g fill="none" stroke="#9084c0">
   <path d="m8.3438 1046.8h12" stroke-width="1px"/>
   <g stroke-width="1px">
    <path d="m8.3438 1048.9h12"/>
    <path d="m13.344 1052.9h5.0173"/>
    <path d="m8.3438 1050.9h12"/>
   </g>
   <path d="m8.3438 1044.8h12" stroke-width="1px"/>
   <path d="m8.3438 1040.9 6-1e-4" stroke-width="1px"/>
   <path d="m8.3438 1042.9 6-1e-4" stroke-width="1px"/>
  </g>
  <path d="m29.832 1045.4v5.509l5.638 0.022m-18.611-6.0097-0.01389 21.538c2.8974-2.3647 3.6533-2.8726 6.5759-2.8726 2.6973-0.032 4.1021 1.8384 7.3065 3.591 2.0113 0.9392 3.9013 0.696 5.1146 0.7402l-4e-3 -17.312-5.7134-5.6842z" fill="#f0f0ff" stroke="#6256aa" stroke-linecap="round" stroke-linejoin="round"/>
  <g fill="none" stroke="#9084c0">
   <path d="m20.344 1054.8h12" stroke-width="1px"/>
   <g stroke-width="1px">
    <path d="m20.344 1048.9 6-1e-4"/>
    <path d="m20.344 1050.9 6-1e-4"/>
    <path d="m20.344 1058.9h12"/>
    <path d="m27.326 1060.9h5.0173"/>
   </g>
   <path d="m20.344 1052.8h12" stroke-width="1px"/>
   <path d="m20.344 1056.8h12" stroke-width="1px"/>
  </g>
 </g>
</svg>
