<?xml version="1.0" encoding="UTF-8"?>
<svg width="32" height="32" version="1.1" xmlns="http://www.w3.org/2000/svg">
 <path d="m13.487 1v5.509l5.638 0.022m-18.611-6.0097-0.01389 21.538c2.8974-2.3647 3.6533-2.8726 6.5759-2.8726 2.6973-0.032 4.1021 1.8384 7.3065 3.591 2.0113 0.9392 3.9013 0.696 5.1146 0.7402l-4e-3 -17.312-5.7134-5.6842z" fill="#f0f0ff" stroke="#5858ff" stroke-linecap="round" stroke-linejoin="round"/>
 <g fill="none" stroke="#6784fd" stroke-width="1px">
  <path d="m3.999 10.4h12"/>
  <path d="m3.999 12.5h12"/>
  <path d="m8.9992 16.5h5.0173"/>
  <path d="m3.999 14.5h12"/>
  <path d="m3.999 8.4h12"/>
  <path d="m3.9991 4.5 6-1e-4"/>
  <path d="m3.9991 6.5 6-1e-4"/>
 </g>
 <path d="m25.488 9v5.509l5.638 0.022m-18.611-6.0097-0.01389 21.538c2.8974-2.3647 3.6533-2.8726 6.5759-2.8726 2.6973-0.032 4.1021 1.8384 7.3065 3.591 2.0113 0.9392 3.9013 0.696 5.1146 0.7402l-4e-3 -17.312-5.7134-5.6842z" fill="#f0f0ff" stroke="#3434fd" stroke-linecap="round" stroke-linejoin="round"/>
 <g fill="none" stroke-width="1px">
  <g stroke="#5858ff">
   <path d="m16 18.4h12"/>
   <path d="m16 12.5 6-1e-4"/>
   <path d="m16 14.5 6-1e-4"/>
  </g>
  <g stroke="#3434fd">
   <path d="m19.937 21-3.011 1.9994 3.0219 1.9979"/>
   <path d="m22.998 20.1-1.9908 5.6968"/>
   <path d="m24.059 21 3.0331 1.9773-3.044 2.02"/>
  </g>
  <path d="m16 16.4h12" stroke="#5858ff"/>
 </g>
</svg>
