<?xml version="1.0" encoding="UTF-8"?>
<svg width="16" height="16" version="1.1" xmlns="http://www.w3.org/2000/svg" xmlns:osb="http://www.openswatchbook.org/uri/2009/osb">
 <g transform="translate(-10 -182.36)">
  <path d="m23 185.86h2.5v9h-2.5" fill="none" stroke="#6256aa" stroke-width="1px"/>
  <path d="m22 185.86h-2.5v9h2.5" fill="none" stroke="#6256aa" stroke-width="1px"/>
  <g transform="scale(1.0959 .91248)" fill="#554b95" aria-label="$">
   <path d="m14.88 205.31q-0.29918-0.91179-1.6241-0.92604v3.1913q0.11398 0.0285 0.35617 0.0855 1.1113 0.25644 1.5387 0.47015 0.4274 0.2137 0.79782 0.69809 0.44165 0.58412 0.44165 1.3819 0 0.75508-0.41316 1.4104-0.41316 0.6411-1.097 0.95453-0.62686 0.29919-1.6241 0.4844v1.211q0 0.37041-0.39891 0.37041t-0.39891-0.37041v-1.211q-1.0543-0.0712-1.7809-0.37042-0.72659-0.31343-1.154-0.8833-0.41316-0.56988-0.41316-1.2537 0-0.58412 0.28494-0.94029 0.28494-0.35618 0.75508-0.35618 0.31343 0 0.52713 0.21371 0.2137 0.19945 0.2137 0.51288 0 0.61262-0.74084 0.65536 0.07123 0.6696 0.68385 1.0685 0.62686 0.39891 1.6241 0.41316v-3.5902l-0.2137-0.057q-1.154-0.31343-1.5672-0.49864-0.51289-0.22795-0.79782-0.64111-0.32768-0.47014-0.32768-1.1967 0-0.74084 0.41316-1.3819 0.41316-0.64111 1.0685-0.92605 0.55563-0.24219 1.4247-0.38466v-1.1398q0-0.4274 0.39891-0.4274t0.39891 0.4274v1.1398q1.2822 0.14247 2.0373 0.71234t0.75508 1.3962q0 0.37042-0.22795 0.62686-0.22795 0.2422-0.56987 0.2422-0.28494 0-0.48439-0.18521-0.19946-0.18521-0.19946-0.44165 0-0.28494 0.31343-0.4844zm-2.422 2.0943v-3.0203q-0.79782 0.0285-1.3107 0.4559-0.49864 0.4274-0.49864 1.0828 0 0.56987 0.34192 0.8833 0.34192 0.29918 1.211 0.52713 0.07123 0.0143 0.25644 0.0712zm0.79782 1.2965v3.4192q0.86906-0.0142 1.4389-0.51289 0.58412-0.49864 0.58412-1.2537 0-0.69809-0.41316-1.0685t-1.3677-0.54138q-0.05699-0.0143-0.2422-0.0427z" fill="#554b95"/>
  </g>
 </g>
</svg>
