<?xml version="1.0" encoding="UTF-8"?>
<svg width="32" height="32" version="1.1" viewBox="0 0 32 32" xml:space="preserve" xmlns="http://www.w3.org/2000/svg" xmlns:xlink="http://www.w3.org/1999/xlink"><defs><linearGradient id="linearGradient7" x1="3.0122" x2="2.9798" y1="30.585" y2="24.089" gradientTransform="matrix(1.2 0 0 .92308 -.6 1.9231)" gradientUnits="userSpaceOnUse"><stop stop-color="#5c5c5c" offset="0"/><stop stop-color="#7a7a7a" offset="1"/></linearGradient><linearGradient id="linearGradient2" x1="13.998" x2="16.583" y1="21.398" y2="31.897" gradientUnits="userSpaceOnUse"><stop stop-color="#fee448" offset="0"/><stop stop-color="#fed90f" offset=".15749"/><stop stop-color="#f4cf01" offset=".75404"/><stop stop-color="#cbad01" offset="1"/></linearGradient><linearGradient id="linearGradient8" x1="15.183" x2="12.138" y1="31.075" y2="20.241" gradientUnits="userSpaceOnUse"><stop stop-color="#82700d" offset="0"/><stop stop-color="#a9910f" offset="1"/></linearGradient></defs><path d="m26.85 25.019s1.2845-0.69422 1.389-1.3035c0.02978-0.17358-0.11809-0.34828-0.25124-0.47088-0.3005-0.27668-0.72006-0.47417-1.1378-0.50695-0.65918-0.05174-1.9101 0.50916-1.9101 0.50916l-5.9875 3.2296" fill="none" stroke="#a9910f" stroke-width="1.5"/><path d="m5.7078 28.278s5.3865 2.3927 8.2633 2.8977c0.64582 0.11338 1.3142 0.07898 1.9674 0.02052 3.9008-0.3491 8.0411-1.8848 8.0411-1.8848s7.2003-2.5435 7.2541-3.6014c0.0151-0.29692-0.18201-0.50134-0.38221-0.65629-0.30401-0.23529-0.70282-0.27606-1.1103-0.31192-0.29865-0.02628-1.2818 0.01054-1.9127 0.10941-2.0927 0.32796-6.1513 1.5953-6.1513 1.5953l-4.0955-0.0038s-3.4817-0.32178-5.0591-1.1568c-0.15891-0.08413-0.05184-0.31724 0.01267-0.45469 0.15528-0.33084 0.17909-0.59493 0.82467-0.72753 0.87227-0.17916 3.6331-0.52633 4.6065-0.70354 0.43704-0.07957 1.0683-0.22218 1.1879-0.48994 0.17482-0.39126 0.0667-0.92253-0.09491-1.1052-0.35404-0.40026-0.56326-0.48079-1.1226-0.62777-1.6804-0.44159-7.9747-0.44208-7.9747-0.44208l-4.2543 0.75784" fill="none" stroke="url(#linearGradient8)" stroke-width="1.5"/><g><rect y="19" width="6" height="12" rx=".71909" ry=".71909" fill="url(#linearGradient7)"/><path d="m12.97 30.271c-0.55792-0.14504-1.0637-0.25255-1.9887-0.5538-0.91048-0.29651-1.9516-0.71373-2.9646-1.1037-0.56724-0.21837-1.6879-0.82955-1.7738-0.80989l-0.20219-0.10952v-5.5548l0.31161-0.13113c0.094227-0.03965 1.3214-0.39253 1.9176-0.4741l1.7498-0.24709 1.8696-0.07774c2.1153-0.08796 5.9729 0.25809 6.2958 0.54608 0.11082 0.09885 0.44354 0.43512 0.42771 0.60955-0.02397 0.26422-0.49667 0.48126-1.5828 0.60976-1.0732 0.12697-2.0292 0.29384-2.8396 0.46849-1.018 0.2194-1.4852 0.43004-1.8867 0.85928-0.31094 0.33242-0.33535 0.6382-0.30785 0.96982 0.02894 0.34894 0.21531 0.54146 0.70822 0.73154 1.5079 0.5815 5.5139 1.1264 7.2909 0.9977l2.0099-0.10786 1.9941-0.39684c1.9583-0.38972 3.1383-0.9769 3.9703-1.1139 0.89935-0.14814 2.0219-0.20998 2.3361-0.09188 0.26672 0.10026 0.03384 0.38267-0.0581 0.53553-0.16662 0.27697-1.5804 0.90856-3.2451 1.5612-3.0332 1.1891-4.3772 1.8757-7.002 2.4835-1.3971 0.32353-4.0102 0.61548-5.0168 0.64249l-0.51096-0.02655-0.47869-0.05242z" fill="url(#linearGradient2)"/><path d="m21.694 25.666c1.113-0.65812 3.7571-2.2253 3.9961-2.3228 0.629-0.25638 0.60923-0.29687 0.96155-0.29982 0.28608-0.0024 0.60697-0.01627 0.77625 0.06691 0.1048 0.05147 0.26105 0.15564 0.34722 0.23148 0.13643 0.12009 0.056 0.21877 0.02372 0.27909-0.06841 0.12783-0.23708 0.33293-0.53393 0.5052-0.16822 0.09762-0.60425 0.2508-1.3835 0.46791-1.0125 0.2821-1.4257 0.36901-2.6701 0.79961l-0.41179 0.08707c-1.009 0.19244-1.05 0.18568-1.1055 0.1853z" fill="#fee548"/></g><g transform="matrix(.22222 0 0 .21697 7.9999 -.76348)" fill="none">
	<path d="m84.646 11.504c-9.092-10.271-26.311-11.545-39.646 1.57-13.335-13.115-30.554-11.841-39.646-1.57-9.671 10.926-5.609 31.318 7.123 47.615 6.454 8.261 22.397 21.713 32.523 27.362 10.126-5.649 26.069-19.101 32.523-27.362 12.732-16.297 16.795-36.689 7.123-47.615z" fill="#f8305f" stroke-linecap="round"/>
</g><path d="m20.339 6.5683c-0.21791-0.50516-0.7135-0.76168-1.6785-0.76957v2.664c0.08301 0.01579 0.11684 0.02748 0.29325 0.05905 0.80938 0.14208 1.3697 0.27231 1.681 0.39071 0.3113 0.1184 0.60185 0.31178 0.87164 0.58014 0.32168 0.32362 0.48252 0.70643 0.48252 1.1484 0 0.41833-0.15046 0.80904-0.45139 1.1721-0.30092 0.35519-0.70043 0.6196-1.1985 0.79325-0.45658 0.16575-0.90423 0.252-1.6306 0.3546v1.0303c0 0.20522-0.28909 0.3318-0.57964 0.3318s-0.55567-0.12658-0.55567-0.3318v-1.0303c-0.76788-0.039465-1.2966-0.094138-1.8258-0.25989-0.52921-0.17365-0.94947-0.41833-1.2608-0.73405-0.30092-0.31572-0.45139-0.66302-0.45139-1.0419 0-0.32362 0.10377-0.58408 0.3113-0.78141 0.20753-0.19733 0.48252-0.29599 0.82495-0.29599 0.22829 0 0.42026 0.0592 0.57591 0.17759 0.15565 0.1105 0.23348 0.25258 0.23348 0.42622 0 0.3394-0.2698 0.52094-0.80938 0.54462 0.05188 0.37097 0.30093 0.66696 0.74712 0.88797 0.45658 0.221 0.9282 0.33545 1.6546 0.34335l-0.01198-3.0075-0.10164-0.023395c-0.84051-0.17364-1.4112-0.31177-1.7122-0.41438-0.37356-0.12629-0.66411-0.30388-0.87164-0.53278-0.23866-0.26047-0.358-0.59198-0.358-0.99452 0-0.41044 0.15046-0.79325 0.45139-1.1484s0.69005-0.61171 1.1674-0.76957c0.40469-0.13418 0.79169-0.22875 1.4247-0.30768v-0.9951c-2e-6 -0.23679 0.27711-0.31923 0.56765-0.31923s0.5317 0.1184 0.5317 0.35519v0.94716c0.9339 0.07893 1.58 0.27626 2.1299 0.59198 0.54996 0.31572 0.82495 0.70248 0.82495 1.1603 0 0.20522-0.08301 0.37887-0.24904 0.52094-0.16603 0.13418-0.37356 0.20127-0.6226 0.20127-0.20753 0-0.38394-0.05131-0.52921-0.15392-0.14527-0.10261-0.21791-0.22495-0.21791-0.36703 0-0.15786 0.11414-0.29204 0.34243-0.40254zm-2.7899 1.7105v-2.474c-0.5811 0.01579-0.9146 0.13608-1.2882 0.37287-0.36318 0.23679-0.54478 0.53673-0.54478 0.89981 0 0.31572 0.12452 0.56041 0.37356 0.73405 0.24904 0.16575 0.69005 0.31178 1.323 0.43806 0.05188 0.0079 0.0015-0.00229 0.13635 0.029237zm1.1353 3.9249c0.63298-0.0079 1.0372-0.126 1.4522-0.40226 0.42544-0.27626 0.63817-0.62355 0.63817-1.0419 0-0.38676-0.15046-0.68275-0.45139-0.88797s-0.79901-0.35519-1.4942-0.4499c-0.04151-0.0078-0.08425-0.012649-0.15251-0.020035z" fill="#fff" aria-label="$"/></svg>
