<?xml version="1.0" encoding="UTF-8"?>
<svg width="48px" height="48px" version="1.1" xmlns="http://www.w3.org/2000/svg" xmlns:xlink="http://www.w3.org/1999/xlink">
 <defs>
  <radialGradient id="radialGradient3976" cx="23.857" cy="40" r="17.143" gradientTransform="matrix(1 0 0 .5 0 20)" gradientUnits="userSpaceOnUse">
   <stop offset="0"/>
   <stop stop-opacity="0" offset="1"/>
  </radialGradient>
  <linearGradient id="linearGradient3978" x1="36.918" x2="19.071" y1="66.288" y2="5.541" gradientUnits="userSpaceOnUse">
   <stop stop-color="#a40000" offset="0"/>
   <stop stop-color="#ff1717" offset="1"/>
  </linearGradient>
  <linearGradient id="linearGradient3980" x1="43.936" x2="20.065" y1="53.836" y2="-8.5627" gradientUnits="userSpaceOnUse">
   <stop stop-color="#ffe69b" offset="0"/>
   <stop stop-color="#fff" offset="1"/>
  </linearGradient>
  <linearGradient id="linearGradient3982" x1="21.994" x2="20.917" y1="33.955" y2="15.815" gradientTransform="matrix(1.003 0 0 1.003 -.071859 .019684)" gradientUnits="userSpaceOnUse">
   <stop stop-color="#fffeff" stop-opacity=".33333" offset="0"/>
   <stop stop-color="#fffeff" stop-opacity=".21569" offset="1"/>
  </linearGradient>
 </defs>
 <path transform="matrix(1.0706 0 0 .525 -.89276 22.5)" d="m41 40a17.143 8.5714 0 1 1-34.286 0 17.143 8.5714 0 1 1 34.286 0z" color="#000000" display="block" fill="url(#radialGradient3976)" opacity=".6"/>
 <g>
  <path transform="matrix(.92049 0 0 .92049 2.3685 .97408)" d="m46.857 23.929a23.357 23.357 0 1 1-46.714 0 23.357 23.357 0 1 1 46.714 0z" fill="url(#linearGradient3978)" stroke="#b20000" stroke-width="1.0864"/>
  <path transform="matrix(.85609 0 0 .85609 1.8183 .19777)" d="m49.902 26.635a23.991 23.991 0 1 1-47.982 0 23.991 23.991 0 1 1 47.982 0z" fill-opacity="0" opacity=".34659" stroke="url(#linearGradient3980)" stroke-width="1.1681"/>
 </g>
 <g fill="#efefef">
  <rect transform="matrix(.70711 -.70711 .70711 .70711 0 0)" x="-13.293" y="30.234" width="28" height="6.0001"/>
  <rect transform="matrix(.70711 .70711 -.70711 .70711 0 0)" x="19.234" y="-3.7071" width="28" height="6.0001"/>
 </g>
 <path d="m43.429 21.8c0 10.863-10.385-6.2851-18.731 0.38754-8.1507 6.517-20.659 12.227-20.659 1.364 0-11.117 8.7214-21.431 19.584-21.431s19.805 8.8164 19.805 19.679z" fill="url(#linearGradient3982)"/>
</svg>
