<?xml version="1.0" encoding="UTF-8"?>
<svg width="16" height="16" version="1.1" viewBox="0 0 16 16" xmlns="http://www.w3.org/2000/svg">
 <path d="m8 1a7 7 0 1 0 7 7 7.008 7.008 0 0 0-7-7zm0 13a6 6 0 1 1 6-6 6.007 6.007 0 0 1-6 6zm0-10.875a2.7 2.7 0 0 0-2.875 2.875 0.875 0.875 0 0 0 1.75 0c0-1 0.6-1.125 1.125-1.125a1.105 1.105 0 0 1 1.13 0.744 0.894 0.894 0 0 1-0.53 1.016 2.738 2.738 0 0 0-1.475 2.365v0.337a0.875 0.875 0 0 0 1.75 0v-0.37a1.041 1.041 0 0 1 0.609-0.824 2.637 2.637 0 0 0 1.336-2.983 2.838 2.838 0 0 0-2.82-2.035zm0 7.625a1.25 1.25 0 1 0 1.25 1.25 1.25 1.25 0 0 0-1.25-1.25z" fill="#5858ff"/>
</svg>
