<?xml version="1.0" encoding="UTF-8"?>
<svg width="96" height="96" version="1.1" xmlns="http://www.w3.org/2000/svg" xmlns:osb="http://www.openswatchbook.org/uri/2009/osb" xmlns:xlink="http://www.w3.org/1999/xlink">
 <defs>
  <linearGradient id="linearGradient3228" x1="43.246" x2="43.41" y1="1010.7" y2="1052" gradientTransform="matrix(1.4513 0 0 1.4363 4.5755 -450.3)" gradientUnits="userSpaceOnUse">
   <stop stop-opacity="0" offset="0"/>
   <stop stop-color="#545454" stop-opacity=".37647" offset="1"/>
  </linearGradient>
  <linearGradient id="linearGradient3230" x1="4.2501" x2="42.709" y1="1003.5" y2="1043.1" gradientTransform="matrix(1.4855 0 0 1.4497 .049953 -467.28)" gradientUnits="userSpaceOnUse">
   <stop stop-color="#eef3f6" offset="0"/>
   <stop stop-color="#abc3d2" offset="1"/>
  </linearGradient>
  <linearGradient id="linearGradient3232" x1="4.2501" x2="37.46" y1="1003.5" y2="1051.5" gradientTransform="matrix(1.4855 0 0 1.4497 .049953 -467.28)" gradientUnits="userSpaceOnUse">
   <stop stop-color="#6c8ad0" offset="0"/>
   <stop stop-color="#203567" offset="1"/>
  </linearGradient>
 </defs>
 <g transform="translate(0 -988.36)">
  <path d="m64.708 995.67v18.614h22.072m-69.261-18.921-0.51972 77.713c4.4555-12.542 22.612-16.881 33.985-10.392 8.4655 4.6342 7.0051 9.074 18.725 16.063 7.4867 3.2473 13.498 2.5522 17.289 2.5522l-0.03459-66.313-23.024-19.623z" fill="none" stroke="url(#linearGradient3228)" stroke-width="6"/>
  <path d="m60.7 991.11v19.255l23.002 0.044m-71.702-20.051v80.307c4.6227-12.833 22.921-18.066 34.721-11.428 8.7832 4.7414 7.2681 9.2841 19.428 16.435 6.4888 3.074 13.918 2.6584 17.851 2.6584l-0.0053-67.923-23.832-20.05z" fill="url(#linearGradient3230)" stroke="url(#linearGradient3232)" stroke-width="4"/>
  <g fill="none" stroke="#6080cc" stroke-width="2">
   <path d="m72 1020.4h-48"/>
   <path d="m24 1004.4h24"/>
   <path d="m72 1052.4h-16"/>
   <path d="m24 1012.4h24"/>
   <path d="m72 1028.4h-48"/>
   <path d="m72 1036.4h-48"/>
   <path d="m72 1044.4h-48"/>
  </g>
 </g>
</svg>
