<?xml version="1.0" encoding="UTF-8" standalone="no"?>
<svg
   xmlns:dc="http://purl.org/dc/elements/1.1/"
   xmlns:cc="http://creativecommons.org/ns#"
   xmlns:rdf="http://www.w3.org/1999/02/22-rdf-syntax-ns#"
   xmlns:svg="http://www.w3.org/2000/svg"
   xmlns="http://www.w3.org/2000/svg"
   xmlns:sodipodi="http://sodipodi.sourceforge.net/DTD/sodipodi-0.dtd"
   xmlns:inkscape="http://www.inkscape.org/namespaces/inkscape"
   version="1.0"
   width="565.23199"
   height="565.16431"
   viewBox="0 0 56.523199 56.516431"
   id="svg0"
   sodipodi:version="0.32"
   inkscape:version="0.48.5 r10040"
   sodipodi:docname="info.svg"
   inkscape:output_extension="org.inkscape.output.svg.inkscape">
  <metadata
     id="metadata19">
    <rdf:RDF>
      <cc:Work
         rdf:about="">
        <dc:format>image/svg+xml</dc:format>
        <dc:type
           rdf:resource="http://purl.org/dc/dcmitype/StillImage" />
      </cc:Work>
    </rdf:RDF>
  </metadata>
  <sodipodi:namedview
     inkscape:window-height="756"
     inkscape:window-width="1280"
     inkscape:pageshadow="2"
     inkscape:pageopacity="0.0"
     guidetolerance="10.0"
     gridtolerance="10.0"
     objecttolerance="10.0"
     borderopacity="1.0"
     bordercolor="#666666"
     pagecolor="#ffffff"
     id="base"
     inkscape:zoom="0.70710678"
     inkscape:cx="-8.6875056"
     inkscape:cy="217.84587"
     inkscape:window-x="-4"
     inkscape:window-y="0"
     inkscape:current-layer="svg0"
     showgrid="false"
     fit-margin-top="0"
     fit-margin-left="0"
     fit-margin-right="0"
     fit-margin-bottom="0"
     inkscape:window-maximized="0" />
  <defs
     id="defs4">
    <radialGradient
       id="shadowGradient"
       cx="32.5"
       cy="29.5"
       fx="32.5"
       fy="29.5"
       r="26.5"
       gradientUnits="userSpaceOnUse"
       gradientTransform="translate(3.9444034,3.9443219)">
      <stop
         id="stop17"
         style="stop-color:#c0c0c0;stop-opacity:1"
         offset="0" />
      <stop
         id="stop19"
         style="stop-color:#c0c0c0;stop-opacity:1"
         offset="0.88" />
      <stop
         id="stop21"
         style="stop-color:#c0c0c0;stop-opacity:0"
         offset="1" />
    </radialGradient>
    <linearGradient
       x1="42.986301"
       y1="7.0127001"
       x2="22.0144"
       y2="51.987099"
       id="fieldGradient"
       gradientUnits="userSpaceOnUse"
       gradientTransform="translate(4.2000008,4.2000008)">
      <stop
         id="stop7"
         style="stop-color:#9ecefe;stop-opacity:1"
         offset="0" />
      <stop
         id="stop9"
         style="stop-color:#1388ee;stop-opacity:1"
         offset="1" />
    </linearGradient>
    <linearGradient
       x1="54.509937"
       y1="41.179295"
       x2="9.5471001"
       y2="16.248501"
       id="edgeGradient"
       gradientUnits="userSpaceOnUse"
       gradientTransform="translate(4.2000008,4.2000008)">
      <stop
         id="stop12"
         style="stop-color:#1976d9;stop-opacity:1;"
         offset="0" />
      <stop
         id="stop14"
         style="stop-color:#3e73d3;stop-opacity:1"
         offset="1" />
    </linearGradient>
  </defs>
  <g
     id="g3060"
     transform="translate(-4.2000008,-4.2000008)">
    <circle
       style="fill:url(#shadowGradient);stroke:none"
       id="shadow"
       transform="matrix(1.0648,0,0,1.064822,-2.1,1.0864)"
       r="26.5"
       cy="29.5"
       cx="32.5"
       d="M 59,29.5 C 59,44.135546 47.135546,56 32.5,56 17.864454,56 6,44.135546 6,29.5 6,14.864454 17.864454,3 32.5,3 47.135546,3 59,14.864454 59,29.5 z"
       sodipodi:cx="32.5"
       sodipodi:cy="29.5"
       sodipodi:rx="26.5"
       sodipodi:ry="26.5" />
    <circle
       style="fill:url(#fieldGradient);fill-opacity:1;stroke:url(#edgeGradient);stroke-width:2"
       id="field"
       r="25.799999"
       cy="31"
       cx="31"
       d="M 56.799999,31 C 56.799999,45.248946 45.248946,56.799999 31,56.799999 16.751054,56.799999 5.2000008,45.248946 5.2000008,31 5.2000008,16.751054 16.751054,5.2000008 31,5.2000008 45.248946,5.2000008 56.799999,16.751054 56.799999,31 z"
       sodipodi:cx="31"
       sodipodi:cy="31"
       sodipodi:rx="25.799999"
       sodipodi:ry="25.799999" />
    <polygon
       style="fill:#ffffff;stroke:none"
       id="polygon26"
       points="39,44 39,48 23,48 23,44 27,44 27,28 23,28 23,25 23,25 35,25 35,44 " />
    <circle
       style="fill:#ffffff;stroke:none"
       id="circle28"
       r="4"
       cy="17"
       cx="31"
       d="m 35,17 c 0,2.209139 -1.790861,4 -4,4 -2.209139,0 -4,-1.790861 -4,-4 0,-2.209139 1.790861,-4 4,-4 2.209139,0 4,1.790861 4,4 z"
       sodipodi:cx="31"
       sodipodi:cy="17"
       sodipodi:rx="4"
       sodipodi:ry="4" />
    <path
       transform="matrix(1.0047727,0,0,1.0047762,0.4845556,0.2869342)"
       sodipodi:open="true"
       sodipodi:end="6.6467418"
       sodipodi:start="0.3836133"
       d="M 53.280498,39.774565 C 48.173716,52.427376 33.776721,58.544641 21.12391,53.437858 8.4710997,48.331076 2.353835,33.934081 7.4606173,21.281271 12.5674,8.6284598 26.964394,2.5111951 39.617205,7.6179774 52.09094,12.652483 58.244663,26.74104 53.461336,39.313236"
       sodipodi:ry="24.705584"
       sodipodi:rx="24.705584"
       sodipodi:cy="30.527918"
       sodipodi:cx="30.370558"
       id="path3146"
       style="opacity:0.07999998;fill:#ffffff;fill-opacity:1;fill-rule:nonzero;stroke-width:2;stroke-linecap:square;stroke-linejoin:miter;stroke-miterlimit:4;stroke-opacity:1;stroke-dasharray:none;stroke-dashoffset:0"
       sodipodi:type="arc" />
  </g>
</svg>
