<?xml version="1.0" encoding="UTF-8"?>
<svg width="16" height="16" version="1.1" xmlns="http://www.w3.org/2000/svg">
 <g transform="translate(-10 -182.36)">
  <g>
   <path d="m17 194.86h5.5v-10h-5l-1-2h-4.5l-1.5 3v9z" fill="#f0f0ff" stroke="#5858ff" stroke-width="1px"/>
   <path transform="matrix(1 0 -.29371 .95589 0 0)" d="m71.223 196.53h5l0.66679-1.0461h5.8348v8.3691h-11.809z" fill="#f0f0ff" stroke="#5858ff" stroke-linecap="round" stroke-width="1.0228"/>
   <path transform="matrix(1.0333 0 0 1.0333 10 181.6)" d="m15 11.75a3.75 3.75 0 1 1-7.5 0 3.75 3.75 0 1 1 7.5 0z" fill="#3030d6" stroke="#3030d6" stroke-linecap="square" stroke-width=".96774"/>
  </g>
  <path d="m19 193.86h4" fill="none" stroke="#fff" stroke-linecap="square"/>
  <path d="m21.5 195.86 2-2-2-2" fill="none" stroke="#fff" stroke-linecap="round" stroke-width="1.4"/>
 </g>
</svg>
