<?xml version="1.0" encoding="UTF-8"?>
<svg width="16" height="16" version="1.1" xmlns="http://www.w3.org/2000/svg">
 <g transform="translate(-10 -182.36)" fill="none">
  <path d="m23.5 191.36s-0.0041-3.3552-0.01105-3.5045c-0.0067-0.14331-0.08926-0.4156-0.32041-0.64804-0.22552-0.22678-0.45607-0.33892-0.66165-0.34351-0.11241-3e-3 -3.7522 2e-3 -4.0867 5e-3 -0.38391 4e-3 -0.63834-0.72366-0.75327-0.92975-0.14564-0.26114-0.67065-1.6044-1.0618-1.8488-0.27022-0.16881-0.42492-0.21316-0.70498-0.2195-0.30501-7e-3 -2.9676 5.3e-4 -3.373-6e-3 -0.28836-5e-3 -0.48339-1e-3 -0.69904 0.15961-0.2441 0.18201-1.2046 2.1607-1.2867 2.7058-0.06133 0.40738-0.03594 0.77881-0.03594 0.77881v8.3552h8.5121" stroke="#bfb9ff" stroke-width="1px"/>
  <path d="m21 195.36h4" stroke="#f0f0ff" stroke-linecap="round" stroke-width="2"/>
  <path d="m23 193.36v4" stroke="#f0f0ff" stroke-linecap="round" stroke-width="2"/>
 </g>
</svg>
