<?xml version="1.0" encoding="UTF-8"?>
<svg width="16" height="16" version="1.1" xmlns="http://www.w3.org/2000/svg">
 <g transform="translate(-10 -182.36)">
  <path d="m17.002 195.86h6.4967s0.0023-7.7961 0-7.9961c-0.0025-0.21633-0.1175-0.46889-0.328-0.67989-0.21051-0.21099-0.47184-0.31773-0.67539-0.31896-0.26025-2e-3 -3.7547-4e-3 -4.0759-4.5e-4 -0.38387 4e-3 -0.63828-0.72366-0.7532-0.92974-0.14563-0.26114-0.67059-1.6044-1.0617-1.8488-0.2702-0.16881-0.42488-0.21316-0.70491-0.2195-0.30498-7e-3 -2.9674 5.3e-4 -3.3727-6e-3 -0.28833-5e-3 -0.48334-1e-3 -0.69897 0.15961-0.24408 0.18201-1.2045 2.1828-1.2866 2.7279-0.06133 0.40741-0.03594 0.75676-0.03594 0.75676v8.3552z" fill="#f0f0ff" stroke="#5858ff" stroke-width="1px"/>
  <g fill="none">
   <path d="m19 195.86h4.5v-4.5" stroke="#fff" stroke-width="1px"/>
   <path d="m21 195.36h4" stroke="#3434fd" stroke-linecap="round" stroke-width="2"/>
   <path d="m23 193.36v4" stroke="#3434fd" stroke-linecap="round" stroke-width="2"/>
  </g>
 </g>
</svg>
