<?xml version="1.0" encoding="UTF-8"?>
<svg width="64" height="64" version="1.1" viewBox="0 0 16.933 16.933" xml:space="preserve" xmlns="http://www.w3.org/2000/svg" xmlns:xlink="http://www.w3.org/1999/xlink"><defs><linearGradient id="linearGradient3230" x1=".32577" x2="17.307" y1="1004.4" y2="1022.6" gradientTransform="matrix(.97696 0 0 .97042 .064406 62.014)" gradientUnits="userSpaceOnUse"><stop stop-color="#eef3f6" offset="0"/><stop stop-color="#abc3d2" offset="1"/></linearGradient><linearGradient id="linearGradient3232" x1=".32577" x2="12.67" y1="1004.4" y2="1028.3" gradientTransform="matrix(.97696 0 0 .97042 .064406 62.014)" gradientUnits="userSpaceOnUse"><stop stop-color="#6c8ad0" offset="0"/><stop stop-color="#203567" offset="1"/></linearGradient><linearGradient id="linearGradient6" x1="14.509" x2="2.6517" y1="2.4936" y2="14.522" gradientUnits="userSpaceOnUse"><stop stop-color="#bdd3db" offset="0"/><stop stop-color="#ffe4e6" offset=".7475"/><stop stop-color="#edd4fb" offset="1"/></linearGradient></defs><g><g stroke-linecap="square"><g stroke-width=".26458"><rect x=".13229" y="2.249" width="16.669" height="12.435" fill="url(#linearGradient6)" stroke="#96a3b1"/><rect x=".39687" y="2.7781" width="16.14" height=".26458" fill="#0465d2" stroke="#0465d2"/><rect x="16.272" y="2.7781" width=".26458" height=".26458" fill="#d20404" stroke="#d20404"/></g><rect x="6.4161" y="5.0932" width="9.9219" height="9.1281" fill="#fff" stroke="#aeb8c1" stroke-width=".13229"/><rect x="4.8286" y="4.0349" width="10.98" height=".66146" fill="#fff" stroke="#c5ccd3" stroke-width=".13229"/></g><g fill="none" stroke="#3a3944" stroke-width=".13229"><path d="m1.2009 4.101-0.30589 0.27809 0.30589 0.25028" stroke-linecap="round"/><path d="m1.9182 4.101 0.3058 0.27809-0.3058 0.25028" stroke-linecap="round"/><path d="m2.7166 4.6293-0.0040719-0.22218 0.27809-0.25674 0.26825 0.24859v0.22625z"/><path d="m3.7703 4.101 0.53092 0.53092" stroke-linecap="round"/><path d="m4.3012 4.101-0.53092 0.53092" stroke-linecap="round"/></g><rect x=".59531" y="5.0932" width="5.6885" height="9.1281" fill="#fff" fill-opacity=".6" stroke="#aeb8c1" stroke-linecap="square" stroke-width=".13229"/><g fill="none" stroke="#42414d"><g stroke-width=".26458px"><path d="m2.1167 10.716h3.175"/><path d="m2.1167 11.774h3.175"/><path d="m2.1167 11.245h2.6458"/><path d="m2.1363 12.303h2.6458"/><path d="m2.1167 12.832h3.175"/></g><g stroke-linecap="round" stroke-width=".26458"><path d="m1.4618 10.716h0.26611"/><path d="m1.4618 11.245h0.26611"/><path d="m1.4618 11.774h0.26611"/><path d="m1.4618 12.303h0.26611"/><path d="m1.4618 12.832h0.26611"/></g></g><g transform="matrix(.26458 0 0 .26458 1.3229 -268.38)"><path d="m11.516 1036.9-0.03125 3.0534 2.9106 0.031m-12.895-3.0755v14.385c0.83355-2.1838 4.4143-3.4182 6.542-2.2885 1.5838 0.8069 1.0293 1.205 3.2219 2.4218 1.4238 0.6724 2.5253 0.4444 3.2345 0.4444l0.0529-12.156-2.7731-2.7755z" fill="url(#linearGradient3230)" stroke="url(#linearGradient3232)"/><g fill="none" stroke="#6080cc"><path d="m4 1045.9h8"/><path d="m4 1039.9h5.0312"/><path d="m4 1043.9h8"/><path d="m4 1041.9h8"/></g></g></g></svg>
