<?xml version="1.0" encoding="UTF-8"?>
<svg width="24" height="24" version="1.1" viewBox="0 0 24 24" xmlns="http://www.w3.org/2000/svg">
 <g>
  <path d="m15.487 0.9787v5.509l5.638 0.022m-18.611-6.0097-0.01389 21.538c2.8974-2.3647 3.6533-2.8726 6.5759-2.8726 2.6973-0.032 4.1021 1.8384 7.3065 3.591 2.0113 0.9392 3.9013 0.696 5.1146 0.7402l-4e-3 -17.312-5.7134-5.6842z" fill="#f0f0ff" stroke="#3434fd" stroke-linecap="round" stroke-linejoin="round"/>
  <g fill="none" stroke-width="1px">
   <g stroke="#5858ff">
    <path d="m5.9989 10.379h12"/>
    <path d="m5.9989 4.4787 6-1e-4"/>
    <path d="m5.9989 6.4787 6-1e-4"/>
   </g>
   <g stroke="#3434fd">
    <path d="m9.9359 12.979-3.011 1.9994 3.0219 1.9979"/>
    <path d="m12.997 12.079-1.9908 5.6968"/>
    <path d="m14.058 12.979 3.0331 1.9773-3.044 2.02"/>
   </g>
   <path d="m5.9989 8.3787h12" stroke="#5858ff"/>
  </g>
 </g>
</svg>
