<?xml version="1.0" encoding="UTF-8"?>
<svg width="48" height="48" enable-background="new" version="1.1" xmlns="http://www.w3.org/2000/svg" xmlns:osb="http://www.openswatchbook.org/uri/2009/osb" xmlns:xlink="http://www.w3.org/1999/xlink">
 <defs>
  <linearGradient id="linearGradient3772">
   <stop stop-color="#6c8ad0" offset="0"/>
   <stop stop-color="#203567" offset="1"/>
  </linearGradient>
  <linearGradient id="linearGradient3232" x1="9.3629" x2="45.712" y1="1005.3" y2="1050.8" gradientTransform="matrix(.9986 0 0 1.0155 -2.3765 -15.52)" gradientUnits="userSpaceOnUse">
   <stop stop-color="#999faf" offset="0"/>
   <stop stop-color="#3b3f4c" offset="1"/>
  </linearGradient>
  <linearGradient id="linearGradient1884" x1="-21.61" x2="1.5717" y1="1033" y2="1049.2" gradientTransform="translate(35.303 -13.22)" gradientUnits="userSpaceOnUse" xlink:href="#linearGradient3772"/>
  <linearGradient id="linearGradient1886" x1="-21.61" x2="1.5717" y1="1033" y2="1049.2" gradientTransform="translate(35.731 -12.838)" gradientUnits="userSpaceOnUse" xlink:href="#linearGradient3772"/>
  <linearGradient id="linearGradient1888" x1="-21.61" x2="1.5717" y1="1033" y2="1049.2" gradientTransform="translate(35.09 -13.22)" gradientUnits="userSpaceOnUse" xlink:href="#linearGradient3772"/>
 </defs>
 <g transform="translate(0 -1004.4)">
  <path d="m31.448 1005.5v9.939h11.435m-35.884-10.103v41.909c2.3084-6.6969 11.446-9.4284 17.338-5.9637 4.386 2.4744 3.6293 4.845 9.7013 8.5767 2.8804 1.5621 5.9309 1.238 8.9574 1.363l-0.11312-35.456-11.834-10.429z" fill="#ebf1f5" stroke="url(#linearGradient3232)" stroke-width="2"/>
  <path d="m20.29 1023.7q-0.378-1.152-2.052-1.17v4.032q0.144 0.036 0.45 0.108 1.404 0.324 1.944 0.594t1.008 0.882q0.558 0.738 0.558 1.746 0 0.954-0.522 1.782-0.522 0.81-1.386 1.206-0.792 0.378-2.052 0.612v1.53q0 0.468-0.504 0.468t-0.504-0.468v-1.53q-1.332-0.09-2.25-0.468-0.918-0.396-1.458-1.116-0.522-0.72-0.522-1.584 0-0.738 0.36-1.188t0.954-0.45q0.396 0 0.666 0.27 0.27 0.252 0.27 0.648 0 0.774-0.936 0.828 0.09 0.846 0.864 1.35 0.792 0.504 2.052 0.522v-4.536l-0.27-0.072q-1.458-0.396-1.98-0.63-0.648-0.288-1.008-0.81-0.414-0.594-0.414-1.512 0-0.936 0.522-1.746t1.35-1.17q0.702-0.306 1.8-0.486v-1.44q0-0.54 0.504-0.54t0.504 0.54v1.44q1.62 0.18 2.574 0.9t0.954 1.764q0 0.468-0.288 0.792-0.288 0.306-0.72 0.306-0.36 0-0.612-0.234t-0.252-0.558q0-0.36 0.396-0.612zm-3.06 2.646v-3.816q-1.008 0.036-1.656 0.576-0.63 0.54-0.63 1.368 0 0.72 0.432 1.116 0.432 0.378 1.53 0.666 0.09 0.018 0.324 0.09zm1.008 1.638v4.32q1.098-0.018 1.818-0.648 0.738-0.63 0.738-1.584 0-0.882-0.522-1.35t-1.728-0.684q-0.072-0.018-0.306-0.054z" fill="url(#linearGradient1886)"/>
  <path d="m29.57 1036.5h-4.5703v-17.121h4.5703v1.2568h-3.041v14.607h3.041z" fill="url(#linearGradient1884)"/>
  <path d="m36.951 1036.5h-4.5703v-1.2569h3.041v-14.607h-3.041v-1.2568h4.5703z" fill="url(#linearGradient1888)"/>
 </g>
</svg>
