<?xml version="1.0" encoding="UTF-8"?>
<svg width="32" height="32" version="1.1" xmlns="http://www.w3.org/2000/svg">
 <g stroke-linejoin="round">
  <path d="m16.997 8.0433-7.24e-4 -2.99-4.0969-4.0343-9.6961-0.018845s-0.87195-0.06659-1.5543 0.72985l-4.52e-5 -6e-6c-0.58705 0.68474-0.62953 1.7516-0.62953 1.7516l-0.019645 16.404c1.1945-2.9029 4.2703-4.5718 6.8041-3.4432m0 0c0.19896 0.07834 0.39562 0.1805 0.59017 0.30122" fill="none" stroke="#bfb9ff" stroke-linecap="round" stroke-width="2"/>
  <path d="m12.003 1.2962-0.0026 4.6862 4.31 0.027163" fill="none" stroke="#bfb9ff" stroke-width="2"/>
  <path d="m11.205 8 0.07422 0.00195s-1.407-0.055384-2.3809 1.0723c-0.00261 0.00129-0.00521 0.0026-0.00781 0.00391-4.514e-4 5.265e-4 4.509e-4 0.00143 0 0.00195-0.90417 1.056-0.8711 2.3613-0.8711 2.3613-2.543e-4 0.01302-2.543e-4 0.02604 0 0.03906l-0.019531 16.404c0.0027 1.0926 1.505 1.39 1.9238 0.38086 1.016-2.469 3.5484-3.7673 5.4727-2.9102 0.01354 0.0062 0.02722 0.01203 0.04102 0.01758 0.6896 0.27152 2.5388 2.1228 2.5388 2.1228l1.3401-1.5349s-1.7518-1.8859-3.125-2.4355c-2.1477-0.94653-4.4678-0.22153-6.1875 1.3535l0.01563-13.357s0.12017-0.82743 0.38867-1.1406c0.39057-0.45587 0.71875-0.38281 0.71875-0.38281 0.0247 0.00157 0.04946 0.00222 0.07421 0.00195l9.2871 0.01758 3.5078 3.4551 0.0018 2.4218s0.6434-0.61367 1.015-0.8528c0.30243-0.1946 0.97393-0.4642 0.97393-0.4642l0.0092-1.5247c-3.9e-5 -0.26808-0.1077-0.52491-0.29883-0.71289l-4.0957-4.0332c-0.18654-0.18349-0.43757-0.28656-0.69922-0.28711zm12.795 19.436v0.5424l-0.43922 0.0045-1.7023 2.0145s0.82234-0.01274 1.1688-0.0054l1.9512 0.00787c0.55987 0.01088 1.0196-0.44002 1.0195-1l0.001953-1.4941v-2e-3l-0.0027-2.4272z" color="#000000" fill="#bfb9ff" stroke-linecap="round" style="-inkscape-stroke:none"/>
 </g>
 <g stroke="#bfb9ff">
  <path d="m20.003 9.296-0.0026 4.6862 4.31 0.02716" fill="none" stroke-linejoin="round" stroke-width="2"/>
  <g stroke-linecap="round">
   <path d="m28.801 15.736-3.6442 3.6379 2.4457 2.3981 3.5598-3.7101 0.1006-0.10726m-5e-3 7e-4c0.24092 0.65798 0.22994 0.90337 0.22994 1.5068 0 2.1743-1.7499 3.9368-3.9086 3.9368-2.1587 0-3.9086-1.7626-3.9086-3.9368 0-2.1743 1.7499-3.9368 3.9086-3.9368 0.64023 0 0.82338-0.1063 1.3081 0.13621" fill="none" stroke-width="1px"/>
   <path d="m27.101 22.905c-0.75678-0.11207-1.3606-0.42317-1.9238-0.99121-0.6996-0.70566-0.97938-1.3353-1.0188-2.2929-0.01672-0.40628-0.0028-0.62657 0.05694-0.8997 0.27554-1.2604 1.246-2.2823 2.4922-2.6245 0.31054-0.08486 1.1986-0.13656 1.4361-0.08311l0.17117 0.03849-1.5799 1.7031c-0.86892 0.9367-1.5799 1.7193-1.5799 1.7391 0 0.02012 0.58237 0.57005 1.2942 1.223 0.71178 0.65282 1.3481 1.2367 1.414 1.2974l0.11982 0.11049 3.0129-3.2069 0.01338 0.45868c0.03461 1.1874-0.49122 2.2352-1.4706 2.9303-0.69903 0.49613-1.6116 0.71974-2.4378 0.59744z" fill="#bfb9ff" stroke-linejoin="bevel"/>
   <path d="m25.13 22.56-6.6472 7.8813" fill="none" stroke-width="3"/>
  </g>
 </g>
</svg>
