<?xml version="1.0" encoding="UTF-8"?>
<svg width="32" height="32" version="1.1" xmlns="http://www.w3.org/2000/svg">
 <g stroke="#6357ab">
  <path d="m1.6492 1.73c-0.58705 0.68474-0.62953 1.7516-0.62953 1.7516l-0.019645 16.404c1.1945-2.9029 4.2703-4.5718 6.8041-3.4432 1.665 0.65559 3.1681 2.9793 4.6365 3.8869 0.59701 0.4565 1.9525 0.57603 2.6234 0.6314l1.9346 0.03896 0.0014-1.4953-0.0035-14.451-4.0969-4.0343-9.6961-0.018845s-0.87195-0.06659-1.5543 0.72985z" fill="#fff" stroke-linecap="round" stroke-linejoin="round" stroke-width="2"/>
  <g fill="none">
   <path d="m4 8.5h10"/>
   <path d="m4 4.5h5"/>
   <path d="m12.003 1.2962-0.0026 4.6862 4.31 0.027163" stroke-linejoin="round" stroke-width="2"/>
   <path d="m4 6.5h5"/>
   <path d="m4 10.5h10"/>
   <path d="m10 14.5h4"/>
   <path d="m4 12.5h10"/>
  </g>
 </g>
 <path d="m1.7383 1.7984c-0.65983 0.75713-0.70758 1.9367-0.70758 1.9367l-0.02208 18.139c1.3426-3.2098 4.7997-5.0551 7.6476-3.8072 1.8715 0.7249 3.5609 3.2942 5.2113 4.2978 0.67103 0.50476 2.5541 0.63692 3.106 0.65321l2.0171-0.0019 0.0016-1.5635-4e-3 -15.979-4.6047-4.4608-10.898-0.020837s-0.98005-0.07363-1.747 0.80701z" fill="#fff" stroke="#007af5" stroke-linecap="round" stroke-linejoin="round" stroke-width="2"/>
 <path d="m4 8v1h8.5s0.30867-0.34843 0.48438-0.5c0.22326-0.1926 0.71875-0.51562 0.71875-0.51562z" color="#000000" fill="#007af5" style="-inkscape-stroke:none"/>
 <g fill="none" stroke="#007af5">
  <path d="m4 4.5h6"/>
  <path d="m12.993 0.82434-0.0029 5.1817 5.3162-0.014909" stroke-linejoin="round" stroke-width="2"/>
  <path d="m4 6.5h6"/>
 </g>
 <path d="m4 10v1h7.6562s0.08462-0.36407 0.14595-0.54022c0.054863-0.15756 0.1978-0.45978 0.1978-0.45978z" color="#000000" fill="#007af5" style="-inkscape-stroke:none"/>
 <g stroke="#007af5">
  <path d="m4 12.5h7.6" fill="none"/>
  <path d="m4 14.5h7.6" fill="none"/>
  <path d="m13.73 9.807c-0.65983 0.75713-0.70758 1.9367-0.70758 1.9367l-0.02208 18.139c1.3426-3.2098 4.7997-5.0551 7.6476-3.8072 1.8715 0.7249 3.5609 3.2942 5.2113 4.2978 0.67103 0.50476 2.5541 0.63692 3.106 0.65321l2.0171-0.0019 0.0016-1.5635-4e-3 -15.979-4.6047-4.4608-10.898-0.020837s-0.98005-0.07363-1.747 0.80701z" fill="#d6eaff" stroke-linecap="round" stroke-linejoin="round" stroke-width="2"/>
  <path d="m15.991 16.509h12" fill="none"/>
  <path d="m15.991 12.509h6" fill="none"/>
  <path d="m24.988 9.0448 0.0063 4.9386 5.1006-2e-3" fill="#99cbff" stroke-linejoin="round" stroke-width="2"/>
 </g>
 <g fill="none" stroke="#007af5">
  <path d="m15.991 14.509h6"/>
  <path d="m23.991 24.509h4"/>
  <g>
   <path d="m15.991 18.509h12"/>
   <path d="m15.991 20.509h12"/>
   <path d="m15.991 22.509h12"/>
  </g>
 </g>
</svg>
