<?xml version="1.0" encoding="UTF-8"?>
<svg width="32" height="32" version="1.1" xmlns="http://www.w3.org/2000/svg">
 <g transform="translate(0 -1004.4)" fill="none" stroke="#6357ab">
  <path d="m18.968 1005.6s0.01559 5.6569 0.01563 6.0832c2.8e-5 0.3352 0.32204 0.647 0.68828 0.6475 0.50799 7e-4 6.7663 0 6.7663 0m-20.807-6.3377c-0.34978 0.3566-0.60892 0.8848-0.60892 1.3843 0 8.0026-0.022097 23.49-0.022097 23.49 1.4098-4.0758 6.9903-5.7382 10.589-3.6296 2.6786 1.506 2.2165 2.9488 5.9248 5.22 1.3107 0.6166 1.9784 0.9175 3.488 0.9 0.40908-0 1.017-0.1738 1.4506-0.6835 0.27138-0.319 0.56002-0.7246 0.55481-1.3602-0.0078-0.9483-0.0077-16.8-0.0082-17.149-0.0017-1.1761-0.05439-1.6405-0.50037-2.097-0.24982-0.2557-6.938-6.1797-7.0996-6.2952-0.35352-0.2527-0.9431-0.3976-1.447-0.4055-0.42759-0.01-0.60668 0-0.91325-0.01-0.291 0-0.65919 6e-4 -0.9713 3e-4 -0.98466-1e-3 -5.7213-0.015-9.0675 0.01-0.51047 0-1.0115 0.2574-1.3689 0.6219z" stroke-linejoin="round" stroke-width="2"/>
  <g>
   <path d="m9 1009.9h6"/>
   <path d="m9 1015.9h14" stroke-width=".99999"/>
   <path d="m9 1012.9h6"/>
   <path d="m9 1018.9h14" stroke-width=".99999"/>
   <path d="m9 1021.9h14" stroke-width=".99999"/>
   <path d="m18 1024.9h5"/>
  </g>
 </g>
</svg>
