<?xml version="1.0" encoding="UTF-8"?>
<svg width="32" height="32" version="1.1" xmlns="http://www.w3.org/2000/svg">
 <g stroke="#007af5">
  <path d="m18.01 1-0.0102 15.143c0.88812-2.3261 3.4171-3.3066 6.0688-2.2943 1.6874 0.8595 1.2121 1.1103 3.5482 2.4064 1.2225 0.5765 2.1156 0.7138 3.3853 0.7296l-0.0031-12.567-3.4024-3.4145z" fill="#d6eaff" stroke-width="2"/>
  <path d="m21 4.5h4" fill="none" stroke-width=".99996"/>
  <path d="m21 10.5h7" fill="none"/>
  <path d="m17.967 29.254 0.01397-7.8431c-0.35658-0.40009-0.96608-1.0375-1.3734-1.4359l-5.9803 0.0225-2.0479-1.9962-6.1496-0.020646-0.71048 0.77499-0.71825 0.72168 0.032766 11.515c4.5659-0.03526 12.553 0 16.954-0.02412z" fill="#99cbff" stroke-width="2"/>
  <path d="m9.9191 20.325-1.599 1.6672-7.2769 0.018" fill="none" stroke-width="2"/>
  <path d="m28.474 19.501 2.0044-5e-4 0.02344 3.5716c-0.05836 0.8127-0.14796 1.391-0.94851 2.2272-0.78092 0.8583-1.8821 1.1776-2.7646 1.2156l-3.2995-0.016v1.8481l-2.7912-2.7994 2.7976-2.6797v1.6385l2.9961-1e-3c0.34682-1e-3 0.88896-0.088 1.392-0.589 0.49901-0.4587 0.59177-1.0659 0.60641-1.3996z" fill="#007af5" stroke-width="1px"/>
  <path d="m7.5275 15.556-2.0044 5e-4 -0.023-3.5716c0.058-0.8127 0.1479-1.391 0.94849-2.2272 0.7809-0.8583 1.8821-1.1776 2.7646-1.2156l3.2995 0.016v-1.8481l2.7911 2.7994-2.7976 2.6797v-1.6385h-2.9961c-0.3468 0-0.88889 0.088-1.392 0.589-0.499 0.4587-0.5918 1.0659-0.6064 1.3996z" fill="#007af5" stroke-width="1px"/>
 </g>
 <g fill="none" stroke="#007af5">
  <path d="m27.011 0.65056v4.3751l4.4857 1e-4" stroke-width="2"/>
  <path d="m21 8.5h7"/>
  <path d="m21 6.5h4" stroke-width=".99996"/>
 </g>
</svg>
