<?xml version="1.0" encoding="UTF-8"?>
<svg width="32" height="32" version="1.1" xmlns="http://www.w3.org/2000/svg">
 <g stroke-linejoin="round">
  <path d="m16.997 8.0433-7.24e-4 -2.99-4.0969-4.0343-9.6961-0.018845s-0.87195-0.06659-1.5543 0.72985l-4.52e-5 -6e-6c-0.58705 0.68474-0.62953 1.7516-0.62953 1.7516l-0.019645 16.404c1.1945-2.9029 4.2703-4.5718 6.8041-3.4432m0 0c0.19896 0.07834 0.39562 0.1805 0.59017 0.30122" fill="none" stroke="#6357ab" stroke-linecap="round" stroke-width="2"/>
  <path d="m12.003 1.2962-0.0026 4.6862 4.31 0.027163" fill="none" stroke="#6357ab" stroke-width="2"/>
  <path d="m11.205 8 0.07422 0.00195s-1.407-0.055384-2.3809 1.0723c-0.00261 0.00129-0.00521 0.0026-0.00781 0.00391-4.514e-4 5.265e-4 4.509e-4 0.00143 0 0.00195-0.90417 1.056-0.8711 2.3613-0.8711 2.3613-2.543e-4 0.01302-2.543e-4 0.02604 0 0.03906l-0.019531 16.404c0.0027 1.0926 1.505 1.39 1.9238 0.38086 1.016-2.469 3.5484-3.7673 5.4727-2.9102 0.01354 0.0062 0.02722 0.01203 0.04102 0.01758 0.6896 0.27152 2.5388 2.1228 2.5388 2.1228l1.3401-1.5349s-1.7518-1.8859-3.125-2.4355c-2.1477-0.94653-4.4678-0.22153-6.1875 1.3535l0.01563-13.357s0.12017-0.82743 0.38867-1.1406c0.39057-0.45587 0.71875-0.38281 0.71875-0.38281 0.0247 0.00157 0.04946 0.00222 0.07421 0.00195l9.2871 0.01758 3.5078 3.4551 0.0018 2.4218s0.6434-0.61367 1.015-0.8528c0.30243-0.1946 0.97393-0.4642 0.97393-0.4642l0.0092-1.5247c-3.9e-5 -0.26808-0.1077-0.52491-0.29883-0.71289l-4.0957-4.0332c-0.18654-0.18349-0.43757-0.28656-0.69922-0.28711zm12.795 19.436v0.5424l-0.43922 0.0045-1.7023 2.0145s0.82234-0.01274 1.1688-0.0054l1.9512 0.00787c0.55987 0.01088 1.0196-0.44002 1.0195-1l0.001953-1.4941v-2e-3l-0.0027-2.4272z" color="#000000" fill="#6357ab" stroke-linecap="round" style="-inkscape-stroke:none"/>
  <path d="m20.003 9.296-0.0026 4.6862 4.31 0.02716" fill="none" stroke="#6357ab" stroke-width="2"/>
 </g>
 <g transform="matrix(.86858 0 0 .87485 4.1414 -874.94)" stroke="#6357ab" stroke-linecap="round">
  <path d="m28.391 1018.1-4.1956 4.1583 2.8157 2.7412 4.0984-4.2408 0.11582-0.1226m-0.0057 8e-4c0.27737 0.7521 0.26473 1.0326 0.26473 1.7224 0 2.4853-2.0147 4.5-4.5 4.5s-4.5-2.0147-4.5-4.5 2.0147-4.5 4.5-4.5c0.7371 0 0.94796-0.1215 1.5061 0.1557" fill="none" stroke-width="1.1472px"/>
  <path d="m26.433 1026.3c-0.87128-0.1281-1.5664-0.4837-2.2149-1.133-0.80546-0.8066-1.1276-1.5263-1.1729-2.6209-0.01925-0.4644-0.0032-0.7162 0.06555-1.0284 0.31723-1.4407 1.4345-2.6088 2.8693-2.9999 0.35753-0.097 1.38-0.1561 1.6534-0.095l0.19707 0.044-1.8189 1.9467c-1.0004 1.0707-1.8189 1.9652-1.8189 1.9879 0 0.023 0.67048 0.6516 1.49 1.3979 0.81948 0.7462 1.552 1.4136 1.6279 1.483l0.13795 0.1263 3.4688-3.6656 0.0154 0.5243c0.03985 1.3573-0.56554 2.555-1.6931 3.3495-0.80479 0.5671-1.8554 0.8227-2.8066 0.6829z" fill="#6357ab" stroke-linejoin="bevel" stroke-width="1.1472"/>
  <path d="m24.164 1025.9-7.653 9.0087" fill="none" stroke-width="3.4415"/>
 </g>
</svg>
