<?xml version="1.0" encoding="UTF-8"?>
<svg width="32" height="32" version="1.1" xmlns="http://www.w3.org/2000/svg">
 <path d="m17.986 29.294c-7.03e-4 -0.31457 0.0047-5.872 0.0047-5.872-0.0015-0.51804-0.33335-1.3189-0.74647-1.715-0.41199-0.39502-1.1009-0.70742-1.6381-0.701 0 0-4.5999 0.0248-5.0905 0-0.31123-0.015736-0.60337-0.07682-0.90142-0.24794-0.31683-0.18191-0.40583-0.32672-0.56753-0.52836-0.15073-0.18797-0.38961-0.98815-0.753-1.4376-0.14432-0.17849-0.2294-0.29374-0.50253-0.46807-0.37162-0.2372-0.70471-0.30699-1.0279-0.31341-0.58757-0.01167-2.9577-0.01225-3.4091-0.0071-0.50793 0.0058-1.1908 0.25641-1.6506 0.72225-0.52013 0.52692-0.68946 1.2533-0.69398 1.7035-0.00364 0.36267-0.00541 0.96295-0.00541 0.96295s-0.00592 7.6436-0.00212 7.9652c0.00602 0.51068 0.21287 0.85948 0.47981 1.1501 0.32651 0.35546 0.77822 0.50421 1.3025 0.49322 0.30882-0.0065 13.164 0.0051 13.443 0.0062 0.45717 0.0019 1.0098-0.22778 1.3031-0.57122 0.30859-0.36136 0.45665-0.69669 0.45566-1.1417z" fill="#0050a8" stroke="#45a1ff" stroke-linejoin="round" stroke-width="2"/>
 <g fill="none" stroke="#45a1ff" stroke-linecap="round" stroke-width="2">
  <path d="m6.9608 15.035s-0.0056-3.49-1e-7 -4.4036c0.00416-0.67791 0.72738-1.6544 1.6561-1.643 0.78503 0.0097 4.9509 0.018616 5.3323 0.018616"/>
  <path d="m12.032 6.0148 2.6167 2.9926-2.6485 3.0022"/>
  <path d="m29.002 19.966s0.0056 3.49 0 4.4036c-0.0042 0.67791-0.72738 1.6544-1.6561 1.643-0.78502-0.0097-4.9509-0.01862-5.3323-0.01862"/>
  <path d="m23.995 28.987-2.6803-2.9926 2.6803-3.0022"/>
 </g>
 <path d="m18.527 1.5809c-0.47698 0.545-0.5115 1.3941-0.5115 1.3941l-0.01596 13.057c0.97056-2.3105 3.4697-3.6388 5.5283-2.7405 1.3528 0.5218 2.5741 2.3713 3.7672 3.0937 0.48508 0.36334 1.4683 0.59934 2.1611 0.61524l1.5423-2e-3 0.0011-1.2699-0.002817-11.502-3.3287-3.211-7.8781-0.015s-0.70846-0.053-1.2629 0.5809z" fill="#27415e" stroke="#45a1ff" stroke-linecap="round" stroke-linejoin="round" stroke-width="2"/>
 <g fill="none" stroke="#45a1ff">
  <path d="m20.963 8.5h7"/>
  <path d="m20.963 4.5h4"/>
  <path d="m27.044 0.81064-0.0442 4.1544 4.0662 0.044002" stroke-linejoin="round" stroke-width="2"/>
  <path d="m20.963 6.5h4"/>
  <path d="m20.963 10.5h7"/>
 </g>
</svg>
