<?xml version="1.0" encoding="UTF-8"?>
<svg width="32" height="32" version="1.1" xmlns="http://www.w3.org/2000/svg">
 <g fill="none" stroke="#bfb9ff">
  <path d="m18.01 1-0.0102 15.143c0.88812-2.3261 3.4171-3.3066 6.0688-2.2943 1.6874 0.8595 1.2121 1.1103 3.5482 2.4064 1.2225 0.5765 2.1156 0.7138 3.3853 0.7296l-0.0031-12.567-3.4024-3.4145z" stroke-linejoin="round" stroke-width="2"/>
  <path d="m21 4.5h4" stroke-width=".99996"/>
  <path d="m21 10.5h7"/>
  <path d="m17.986 29.294c-7.03e-4 -0.31457 0.0047-5.872 0.0047-5.872-0.0015-0.51804-0.33335-1.3189-0.74647-1.715-0.41199-0.39502-1.1009-0.70742-1.6381-0.701 0 0-4.5999 0.0248-5.0905 0-0.31123-0.015736-0.60337-0.07682-0.90142-0.24794-0.31683-0.18191-0.40583-0.32672-0.56753-0.52836-0.15073-0.18797-0.38961-0.98815-0.753-1.4376-0.14432-0.17849-0.2294-0.29374-0.50253-0.46807-0.37162-0.2372-0.70471-0.30699-1.0279-0.31341-0.58757-0.01167-2.9577-0.01225-3.4091-0.0071-0.50793 0.0058-1.1908 0.25641-1.6506 0.72225-0.52013 0.52692-0.68946 1.2533-0.69398 1.7035-0.00364 0.36267-0.00541 0.96295-0.00541 0.96295s-0.00592 7.6436-0.00212 7.9652c0.00602 0.51068 0.21287 0.85948 0.47981 1.1501 0.32651 0.35546 0.77822 0.50421 1.3025 0.49322 0.30882-0.0065 13.164 0.0051 13.443 0.0062 0.45717 0.0019 1.0098-0.22778 1.3031-0.57122 0.30859-0.36136 0.45665-0.69669 0.45566-1.1417z" stroke-linejoin="round" stroke-width="2"/>
  <path d="m27.011 0.65056v4.3751l4.4857 1e-4" stroke-linejoin="round" stroke-width="2"/>
  <path d="m21 8.5h7"/>
  <path d="m21 6.5h4" stroke-width=".99996"/>
  <g stroke-linecap="round" stroke-width="2">
   <path d="m6.9608 15.035s-0.0056-3.49-1e-7 -4.4036c0.00416-0.67791 0.72738-1.6544 1.6561-1.643 0.78503 0.0097 4.9509 0.018616 5.3323 0.018616"/>
   <path d="m12.032 6.0148 2.6167 2.9926-2.6485 3.0022"/>
   <path d="m29.002 19.966s0.0056 3.49 0 4.4036c-0.0042 0.67791-0.72738 1.6544-1.6561 1.643-0.78502-0.0097-4.9509-0.01862-5.3323-0.01862"/>
   <path d="m23.995 28.987-2.6803-2.9926 2.6803-3.0022"/>
  </g>
 </g>
</svg>
