<?xml version="1.0" encoding="UTF-8"?>
<svg width="32" height="32" version="1.1" xmlns="http://www.w3.org/2000/svg">
 <g transform="translate(0 -1004.4)">
  <path d="m21.307 1010.4h2.104c0.98552 0 1.5888 0.5327 1.5888 1.626v18.932c0 1.8661-1.0047 1.3856-1.6496 1.3871l-16.14 0.037c-1.703 0-2.2106-0.2911-2.2106-2.0607v-17.861c0-1.4315 0.31627-2.0608 2.2106-2.0608h1.3911l13.345 0.012" fill="#d6eaff"/>
  <g stroke="#007af5" stroke-linecap="round">
   <path d="m28.391 1018.1-4.1956 4.1583 2.8157 2.7412 4.0984-4.2408 0.11582-0.1226m-0.0057 8e-4c0.27737 0.7521 0.26473 1.0326 0.26473 1.7224 0 2.4853-2.0147 4.5-4.5 4.5s-4.5-2.0147-4.5-4.5 2.0147-4.5 4.5-4.5c0.7371 0 0.94796-0.1215 1.5061 0.1557" fill="none" stroke-width="1px"/>
   <path d="m26.433 1026.3c-0.87128-0.1281-1.5664-0.4837-2.2149-1.133-0.80546-0.8066-1.1276-1.5263-1.1729-2.6209-0.01925-0.4644-0.0032-0.7162 0.06555-1.0284 0.31723-1.4407 1.4345-2.6088 2.8693-2.9999 0.35753-0.097 1.38-0.1561 1.6534-0.095l0.19707 0.044-1.8189 1.9467c-1.0004 1.0707-1.8189 1.9652-1.8189 1.9879 0 0.023 0.67048 0.6516 1.49 1.3979 0.81948 0.7462 1.552 1.4136 1.6279 1.483l0.13795 0.1263 3.4688-3.6656 0.0154 0.5243c0.03985 1.3573-0.56554 2.555-1.6931 3.3495-0.80479 0.5671-1.8554 0.8227-2.8066 0.6829z" fill="#007af5" stroke-linejoin="bevel"/>
   <path d="m24.164 1025.9-7.653 9.0087" fill="none" stroke-width="3"/>
  </g>
  <g>
   <path d="m9 1009.1 0.00506 4.2598 11.995-0.011 0.02639-4.7645s-0.02595-0.4631-0.34985-0.822c-0.37764-0.4184-0.90254-0.4028-0.90254-0.4028l-1.7202 0.025s-0.70585-1.143-1.4763-1.6071c-0.75764-0.4564-2.6103-0.5568-3.4303 0.1447-0.59104 0.5056-1.3424 1.4622-1.3424 1.4622l-1.5351-0.026s-0.65313 0.078-0.83707 0.3644c-0.41768 0.3738-0.4327 0.6184-0.43271 1.1159z" fill="#99cbff" stroke="#007af5" stroke-linejoin="round" stroke-width="2"/>
   <circle cx="15" cy="1009.4" r="1.5" fill="#007af5" stroke="#007af5" stroke-linecap="round" stroke-linejoin="bevel"/>
   <path d="m6.4283 1008.4c-1.8412 0-3.4283 1.4228-3.4283 3.2481v19.475c0 1.8246 1.5859 3.2451 3.4264 3.2461l6.8215 0.01 0.50149 0.018 1.5664-1.9989-2.0659-0.018-6.8196-0.01h-0.00195c-0.85082 0-1.4314-0.5832-1.4314-1.2473v-19.475c0-0.6643 0.58058-1.2492 1.4314-1.2492h2.5469v-1.9989h-0.99846zm14.509 0v1.9989h2.5605c0.85082 0 1.4656 0.5657 1.4682 1.2348l-0.0028 3.9313 0.0039 1.2941s0.59966-0.215 1.0054-0.2807c0.38091-0.062 1.01-0.079 1.01-0.079l-0.02229-1.0732 0.02119-3.8945c-0.0071-1.8207-1.6423-3.1337-3.4835-3.1337h-1.5621zm4.0281 20.264 8.51e-4 0.465 0.01821 2.045c-0.0058 0.3267-0.35606 0.8154-0.94646 1.1203 0.10536-0.054-0.21428 0.066-0.55189 0.082-0.3376 0.017-0.66007 0.028-0.96775 0.018l-0.59153-0.01-1.6337 1.997 2.0454 0.01c0.3581 0 1.1539 0.01 1.5986-0.018 0.44468-0.022 0.49848-0.018 1.0154-0.2849 1.0592-0.5472 2.0245-1.5016 2.0473-2.7877l1.85e-4 -2.1349-8.94e-4 -0.852s-0.55205-0.063-0.99109-0.1404c-0.28067-0.049-0.53443-0.1128-0.53443-0.1128z" color="#000000" fill="#007af5" stroke-linecap="square" stroke-linejoin="round" stroke-width=".99999" style="-inkscape-stroke:none"/>
  </g>
 </g>
</svg>
