<?xml version="1.0" encoding="UTF-8"?>
<svg id="SVGRoot" width="16px" height="16px" version="1.1" viewBox="0 0 16 16" xmlns="http://www.w3.org/2000/svg">
 <g>
  <path d="m1.0103 13.5-1.0094 0.0019" fill="none" stroke="#6256aa"/>
  <g transform="translate(0 2)" stroke="#6256aa">
   <path d="m0.5 8.5v2.0156h14l5e-6 -2.0156z" fill="#f0f0ff" stroke-width="1px"/>
   <g fill="none">
    <path d="m3.0103 9.5-1.0094 0.0019"/>
    <path d="m5.0103 9.5-1.0094 0.0019"/>
    <path d="m7.0103 9.5-1.0094 0.0019"/>
    <path d="m9.0103 9.5-1.0094 0.0019"/>
    <path d="m11.01 9.5-1.0094 0.0019"/>
    <path d="m13.01 9.5-1.0094 0.0019"/>
   </g>
  </g>
  <g stroke="#6256aa">
   <path d="m0.5 12.5v2.0156h14l5e-6 -2.0156z" fill="#f0f0ff" stroke-width="1px"/>
   <path d="m12.01 13.5-1.0094 0.0019" fill="none"/>
   <path d="m4.0103 13.5-1.0094 0.0019" fill="none"/>
   <path d="m0.5 8.5v2.0156h14l5e-6 -2.0156z" fill="#f0f0ff" stroke-width="1px"/>
  </g>
  <g fill="none" stroke="#6256aa">
   <path d="m3.0103 9.5-1.0094 0.0019"/>
   <path d="m5.0103 9.5-1.0094 0.0019"/>
   <path d="m7.0103 9.5-1.0094 0.0019"/>
   <path d="m9.0103 9.5-1.0094 0.0019"/>
   <path d="m11.01 9.5-1.0094 0.0019"/>
   <path d="m13.01 9.5-1.0094 0.0019"/>
  </g>
  <g transform="translate(0 -2)" stroke="#6256aa">
   <path d="m0.5 8.5v2.0156h14l5e-6 -2.0156z" fill="#f0f0ff" stroke-width="1px"/>
   <g fill="none">
    <path d="m3.0103 9.5-1.0094 0.0019"/>
    <path d="m5.0103 9.5-1.0094 0.0019"/>
    <path d="m7.0103 9.5-1.0094 0.0019"/>
    <path d="m9.0103 9.5-1.0094 0.0019"/>
    <path d="m11.01 9.5-1.0094 0.0019"/>
    <path d="m13.01 9.5-1.0094 0.0019"/>
   </g>
  </g>
  <path d="m1 15.516h14.5v-8.5" fill="none" stroke="#d8d4ff" stroke-width="1px"/>
  <path d="m7.502 6.0271-0.00806-0.96271s0.023588-0.32921-0.076539-0.43888c-0.10855-0.1189-0.46632-0.12583-0.46632-0.12583l-3.5149 0.00272s-0.91643-0.01281-0.91703-0.99437c-6.015e-4 -0.98155 0.97227-0.99436 0.97227-0.99436l7.6213-0.024935s0.54311 0.028061 0.96405-0.41628c0.42094-0.44435 0.4192-0.93194 0.4192-0.93194l1.9e-5 -1.1349" fill="none" stroke="#6256aa" stroke-width="1.0016"/>
 </g>
</svg>
