<?xml version="1.0" encoding="UTF-8"?>
<svg width="16" height="16" version="1.1" xmlns="http://www.w3.org/2000/svg" xmlns:osb="http://www.openswatchbook.org/uri/2009/osb">
 <g transform="translate(-4.3438 -1036.4)">
  <g>
   <path d="m12.844 1036.9v7c1.7786-0.9644 1.5-1 2.5-1 1.5 0 2 0.5 2.5 1 0.5 1 1.5 1.5 2 1.5v-7l-1.5-1.5z" fill="#e5e5f3" stroke="#7062bf"/>
   <path d="m14.344 1038.9h4" fill="none" stroke="#9084c0"/>
   <path d="m14.344 1040.9h4" fill="none" stroke="#9084c0"/>
  </g>
  <path transform="translate(4.3438 1036.4)" d="m0.5 9.5v6h9v-6h-4l-1-2h-3l-0.96875 1.75-0.0625 0.4375" fill="#c1bdee" stroke="#6256aa" stroke-width="1px"/>
  <path transform="translate(4.3438 1036.4)" d="m6 9.5-1 1h-4.5" fill="none" stroke="#6256aa" stroke-width="1px"/>
  <g transform="translate(1)" stroke="#000">
   <path d="m4.8534 1042.4v-3.4819l2.5883-0.01" fill="none" stroke-linejoin="round" stroke-width="1.0193"/>
   <path transform="matrix(.079619 .59989 -.42387 .13744 448.33 894.1)" d="m6.1336 1041-6.1577-1.1736 2.0476-2.373 2.0476-2.3729 1.0312 2.9597z" stroke-linecap="round" stroke-width="1.0016"/>
  </g>
  <g transform="rotate(180 12.344 1044.4)" stroke="#000">
   <path d="m4.8534 1042.4v-3.4819l2.5883-0.01" fill="none" stroke-linejoin="round" stroke-width="1.0193"/>
   <path transform="matrix(.079619 .59989 -.42387 .13744 448.33 894.1)" d="m6.1336 1041-6.1577-1.1736 2.0476-2.373 2.0476-2.3729 1.0312 2.9597z" stroke-linecap="round" stroke-width="1.0016"/>
  </g>
 </g>
</svg>
