<?xml version="1.0" encoding="UTF-8"?>
<svg width="16" height="16" version="1.1" xml:space="preserve" xmlns="http://www.w3.org/2000/svg"><g transform="translate(-4.3438 -1036.4)"><g><path d="m12.844 1036.9v7c1.7786-0.9644 1.721-0.9558 2.5-1 1.0607-0.05 1.8708 0.7674 2.1685 1.0442 0.4779 0.5801 1.6547 1.4558 2.3315 1.4558v-7l-1.5-1.5z" fill="#e5e5f3" stroke="#6256aa"/><path d="m14.344 1038.9h4" fill="none" stroke="#9084c0"/><path d="m14.344 1040.9h4" fill="none" stroke="#9084c0"/></g><path transform="translate(4.3438 1036.4)" d="m0.5 9.4337v6.0663h9v-6h-3.2266l-1.5966-2h-2.9337l-0.99085 1.6616-0.28347 0.52589" fill="#c1bdee" stroke="#7a67b7" stroke-width="1px"/><g fill="none" stroke="#3a3944" stroke-linecap="round"><path d="m5.8604 1041.9v-1.6485s-0.06994-0.6213 0.35353-1.0158c0.44019-0.4101 1.0095-0.3353 1.0095-0.3353l3.1032-0.01" stroke-linejoin="round" stroke-width="1.0193"/><path d="m8.3722 1036.9 2.1654 1.9667-2.1654 2.0108" stroke-width=".99999px"/><path d="m19.828 1046.9v1.6264s0.06994 0.6213-0.35353 1.0158c-0.44019 0.4101-1.0095 0.3353-1.0095 0.3353l-3.1032 0.01" stroke-linejoin="round" stroke-width="1.0193"/><path d="m17.248 1051.8-2.1654-1.9667 2.1654-2.0108" stroke-width=".99999px"/></g><g stroke="#4a4a55"><rect x="6.8407" y="1048.9" width="5.016" height="3.0272" fill="#4a4a55" stroke-linecap="square"/><path d="m7.8351 1048.4s-0.00457-1.2006 1e-7 -1.5247c0.00375-0.2659 0.12349-0.6032 0.53033-0.8619 0.40673-0.2586 1.4549-0.281 1.9224 0.066 0.26136 0.1942 0.4645 0.4671 0.53033 0.7956 0.03886 0.1939 0.02209 1.5026 0.02209 1.5026" fill="none" stroke-width="1px"/></g><path d="m7.349 1051.9 4.9939-0.022" fill="none" stroke="#4a4a55" stroke-width="1px"/></g></svg>
