<?xml version="1.0" encoding="UTF-8"?>
<svg width="16" height="16" version="1.1" xmlns="http://www.w3.org/2000/svg">
 <g transform="translate(-10 -182.36)">
  <path d="m12.641 190.24c0.51531-0.52193 1.9597-2.069 2.6386-2.6632 0.46207-0.40446 1.6744-1.5497 2.1315-1.8784 1.2019-0.86427 2.5107-1.1535 3.6112-1.0771 2.0037 0.13917 3.4094 2.1178 3.6342 3.525 0.14111 0.88362 0.18325 2.1335-0.82812 3.2806" fill="none" stroke="#bfb9ff" stroke-linecap="round" stroke-width="2.5"/>
  <path d="m11.939 185.96-0.6654 4.7929 5.1297-0.0122" fill="none" stroke="#bfb9ff" stroke-linecap="round" stroke-width="2.2"/>
  <path transform="matrix(2 0 0 2 8.5 167.86)" d="m7 13.25c0 0.41421-0.33579 0.75-0.75 0.75s-0.75-0.33579-0.75-0.75c0-0.41421 0.33579-0.75 0.75-0.75s0.75 0.33579 0.75 0.75z" fill="#f0f0ff"/>
 </g>
</svg>
