<?xml version="1.0" encoding="UTF-8"?>
<svg width="16" height="16" version="1.1" xmlns="http://www.w3.org/2000/svg" xmlns:osb="http://www.openswatchbook.org/uri/2009/osb">
 <g transform="translate(-10 -182.36)">
  <path d="m12 189.86c0.09977-0.0369 5.0147-3.6173 5.1016-3.6798 1.1384-0.82016 2.3984-1.3201 3.8984-1.3201 1.9402 0 3.2288 1.4154 3.5 2.5 0.5 2 0 3.5-1.5 5" fill="none" stroke="#bfb9ff" stroke-opacity=".94118" stroke-width="2.5"/>
  <path d="m13 183.86-1.5 6 5.5 1.5" fill="none" stroke="#bfb9ff" stroke-opacity=".94118" stroke-width="2.2"/>
  <path transform="matrix(2 0 0 2 8.5 167.86)" d="m7 13.25a0.75 0.75 0 0 1-0.75 0.75 0.75 0.75 0 0 1-0.75-0.75 0.75 0.75 0 0 1 0.75-0.75 0.75 0.75 0 0 1 0.75 0.75z" fill="#f0f0ff" stroke="#6256aa" stroke-linecap="round" stroke-width=".5"/>
 </g>
</svg>
