<?xml version="1.0" encoding="UTF-8"?>
<svg width="16" height="16" version="1.1" xmlns="http://www.w3.org/2000/svg">
 <g stroke="#0c8564">
  <path transform="matrix(.76194 0 0 .76194 -4.608 -4.5523)" d="m26 16.5a9.5 9.5 0 1 1-19 0 9.5 9.5 0 1 1 19 0z" fill="#cff1f2" fill-opacity=".94118" stroke-linecap="square" stroke-linejoin="bevel" stroke-width="1.8"/>
  <g fill="none">
   <path d="m0.93914 6.94c-0.078376-0.042751 0.18765 0.47133 1.1505 0.99448 0.91792 0.49874 2.1611 0.70443 3.0156 0.82525 0.79067 0.11179 1.7517 0.24178 2.9352 0.22879 1.2247-0.013449 2.0899-0.14997 3.1096-0.37359 1.0572-0.23185 1.84-0.31696 3.0902-0.99731 0.56401-0.30695 0.67961-0.67761 0.67961-0.67761" stroke-width=".81525"/>
   <path d="m2.1763 3.5s0.052676 0.71162 1.1464 1.2392c0.48235 0.23268 1.0674 0.40997 1.9857 0.56215 0.44398 0.073582 1.6963 0.23158 2.716 0.20626 0.96083-0.023854 1.7191-0.040808 2.5773-0.26097 0.54125-0.13886 1.1206-0.27242 1.6406-0.5131 0.59791-0.27675 1.6706-1.0564 1.6706-1.0564" stroke-width=".81525"/>
   <path d="m1.3556 10.443c-0.059604-0.01703 0.66386 0.66774 2.086 1.1545 0.7025 0.24044 1.4035 0.35844 2.1654 0.54057 0.80534 0.19249 1.7074 0.28245 2.5683 0.27312 0.78316-0.0085 1.45-0.06118 2.3305-0.29908 1.51-0.40801 1.2357-0.36686 1.8557-0.54269 1.8556-0.52619 2.4855-1.51 2.4855-1.51" stroke-width=".82318"/>
   <path d="m6.5136 1.2176c-0.54176 1.7205-0.65774 2.2779-1.1046 4.2401-0.30335 1.3201-0.28461 1.9797-0.2907 3.4101 0.013288 1.196 0.082837 1.9758 0.42842 3.5345 0.19816 0.99198 0.47372 1.5854 0.91879 2.7204" stroke-width=".91433"/>
   <path d="m9.4361 1.2176c0.54176 1.7205 0.65774 2.2779 1.1046 4.2401 0.30335 1.3201 0.28461 1.9797 0.2907 3.4101-0.01329 1.196-0.08284 1.9758-0.42842 3.5345-0.19816 0.99198-0.47372 1.5854-0.91879 2.7204" stroke-width=".91433"/>
  </g>
 </g>
</svg>
